<svg xmlns="http://www.w3.org/2000/svg" width="56" height="56" viewBox="0 0 56 56">
  <g id="icon-iikoto03" transform="translate(-1081 -811)">
    <g id="グループ_160" data-name="グループ 160" transform="translate(1084 814)">
      <g id="楕円形_15" data-name="楕円形 15" transform="translate(0 0)" fill="#fff" stroke="#03bf56" stroke-width="3">
        <circle cx="25" cy="25" r="25" stroke="none"/>
        <circle cx="25" cy="25" r="26.5" fill="none"/>
      </g>
      <g id="グループ_154" data-name="グループ 154" transform="translate(8.014 8.005)">
        <path id="パス_13" data-name="パス 13" d="M34.679,23.58a16.63,16.63,0,0,0,.783-5.087A16.986,16.986,0,1,0,18.494,35.462a16.63,16.63,0,0,0,5.087-.783" transform="translate(-1.49 -1.49)" fill="none" stroke="#364eec" stroke-width="2"/>
        <path id="パス_14" data-name="パス 14" d="M34.679,23.58a16.63,16.63,0,0,0,.783-5.087A16.986,16.986,0,1,0,18.494,35.462a16.63,16.63,0,0,0,5.087-.783" transform="translate(-1.49 -1.49)" fill="none" stroke="#364eec" stroke-width="2"/>
        <path id="パス_15" data-name="パス 15" d="M4.23,19.965a16.986,16.986,0,0,1,12.13-5.1,16.755,16.755,0,0,1,5.994,1.1,10.9,10.9,0,0,1,1.405.623" transform="translate(0.643 8.92)" fill="none" stroke="#364eec" stroke-width="2"/>
        <path id="パス_16" data-name="パス 16" d="M4.23,4.36a16.63,16.63,0,0,0,6.118,4,16.79,16.79,0,0,0,6.012,1.1,16.755,16.755,0,0,0,5.994-1.1,16.63,16.63,0,0,0,6.118-4" transform="translate(0.643 0.745)" fill="none" stroke="#364eec" stroke-width="2"/>
        <ellipse id="楕円形_12" data-name="楕円形 12" cx="6.794" cy="16.986" rx="6.794" ry="16.986" transform="translate(10.209 0.018)" fill="none" stroke="#364eec" stroke-width="2"/>
        <ellipse id="楕円形_13" data-name="楕円形 13" cx="6.794" cy="16.986" rx="6.794" ry="16.986" transform="translate(10.209 0.018)" fill="none" stroke="#364eec" stroke-width="2"/>
        <line id="線_9" data-name="線 9" x2="33.954" transform="translate(0.018 17.004)" fill="none" stroke="#364eec" stroke-width="2"/>
        <path id="パス_17" data-name="パス 17" d="M2.273,23.58a16.63,16.63,0,0,1-.783-5.087A16.986,16.986,0,1,1,18.458,35.462a16.63,16.63,0,0,1-5.087-.783" transform="translate(-1.49 -1.49)" fill="none" stroke="#364eec" stroke-width="2"/>
        <path id="パス_18" data-name="パス 18" d="M23.759,19.965a16.986,16.986,0,0,0-12.13-5.1,16.755,16.755,0,0,0-5.994,1.1,10.9,10.9,0,0,0-1.405.623" transform="translate(5.979 8.92)" fill="none" stroke="#364eec" stroke-width="2"/>
      </g>
    </g>
  </g>
</svg>
