<svg xmlns="http://www.w3.org/2000/svg" width="56" height="56" viewBox="0 0 56 56">
  <g id="icon-iikoto01" transform="translate(-282 -811)">
    <g id="グループ_158" data-name="グループ 158" transform="translate(285 814)">
      <g id="楕円形_8" data-name="楕円形 8" transform="translate(0 0)" fill="#fff" stroke="#03bf56" stroke-width="3">
        <circle cx="25" cy="25" r="25" stroke="none"/>
        <circle cx="25" cy="25" r="26.5" fill="none"/>
      </g>
    </g>
    <g id="グループ_279" data-name="グループ 279" transform="translate(295.471 820.179)">
      <path id="パス_6" data-name="パス 6" d="M1.5,25.335A6.6,6.6,0,0,1,8.085,18.75h0a6.6,6.6,0,0,1,6.6,6.585" transform="translate(-1.5 8.565)" fill="none" stroke="#364eec" stroke-miterlimit="10" stroke-width="2"/>
      <circle id="楕円形_6" data-name="楕円形 6" cx="3.948" cy="3.948" r="3.948" transform="translate(2.637 16.782)" fill="none" stroke="#364eec" stroke-miterlimit="10" stroke-width="2"/>
      <path id="パス_7" data-name="パス 7" d="M13,25.335a6.6,6.6,0,0,1,6.6-6.585h0a6.6,6.6,0,0,1,6.585,6.585" transform="translate(2.875 8.565)" fill="none" stroke="#364eec" stroke-miterlimit="10" stroke-width="2"/>
      <circle id="楕円形_7" data-name="楕円形 7" cx="3.948" cy="3.948" r="3.948" transform="translate(18.457 16.782)" fill="none" stroke="#364eec" stroke-miterlimit="10" stroke-width="2"/>
      <line id="Line_7" data-name="Line 7" y1="11.617" transform="translate(8.838 2.529)" fill="none" stroke="#364eec" stroke-miterlimit="10" stroke-width="2"/>
      <path id="Path_10" data-name="Path 10" d="M7.16,17.873H8.512L11.1,19.225h5.951a2.3,2.3,0,0,0,2.232-1.745l.784-3.151a1.893,1.893,0,0,0,.068-.554h0a2.3,2.3,0,0,0-2.3-2.3H15.058l.906-1.812a3.584,3.584,0,0,0,.392-1.623h0A1.718,1.718,0,0,0,14.639,6.31h0A1.731,1.731,0,0,0,13.286,7L9.838,11.422H7.255" transform="translate(1.584 -6.31)" fill="none" stroke="#364eec" stroke-miterlimit="10" stroke-width="2"/>
    </g>
  </g>
</svg>
