<svg xmlns="http://www.w3.org/2000/svg" width="94.652" height="103.006" viewBox="0 0 94.652 103.006">
  <g id="iikoto-icon-single1" transform="translate(1.5 4.71)">
    <path id="パス_6" data-name="パス 6" d="M1.5,38.839A20.131,20.131,0,0,1,21.589,18.75h0A20.131,20.131,0,0,1,41.72,38.839" transform="translate(0 59.451)" fill="none" stroke="#364eec" stroke-miterlimit="10" stroke-width="6"/>
    <circle id="楕円形_6" data-name="楕円形 6" cx="12.045" cy="12.045" r="12.045" transform="translate(9.544 46.067)" fill="none" stroke="#364eec" stroke-miterlimit="10" stroke-width="6"/>
    <path id="パス_7" data-name="パス 7" d="M13,38.839A20.131,20.131,0,0,1,33.131,18.75h0A20.131,20.131,0,0,1,53.22,38.839" transform="translate(36.932 59.451)" fill="none" stroke="#364eec" stroke-miterlimit="10" stroke-width="6"/>
    <circle id="楕円形_7" data-name="楕円形 7" cx="12.045" cy="12.045" r="12.045" transform="translate(57.808 46.067)" fill="none" stroke="#364eec" stroke-miterlimit="10" stroke-width="6"/>
    <line id="Line_7" data-name="Line 7" y1="25.822" transform="translate(33.755 3.911)" fill="none" stroke="#364eec" stroke-miterlimit="10" stroke-width="6"/>
    <path id="Path_10" data-name="Path 10" d="M7.16,32.012h3.006l5.742,3.006H29.134a5.11,5.11,0,0,0,4.96-3.878l1.743-7a4.209,4.209,0,0,0,.15-1.232h0a5.11,5.11,0,0,0-5.11-5.11H24.715l2.014-4.028a7.966,7.966,0,0,0,.872-3.607h0A3.818,3.818,0,0,0,23.783,6.31h0a3.848,3.848,0,0,0-3.006,1.533l-7.665,9.83H7.37" transform="translate(26.384 -8.02)" fill="none" stroke="#364eec" stroke-miterlimit="10" stroke-width="6"/>
  </g>
</svg>
