<svg xmlns="http://www.w3.org/2000/svg" width="117.942" height="118" viewBox="0 0 117.942 118">
  <g id="iikoto-icon-single3" transform="translate(-867 -825.99)">
    <path id="パス_13" data-name="パス 13" d="M110.853,74.281a54.8,54.8,0,0,0,2.579-16.762,55.971,55.971,0,1,0-55.912,55.912,54.8,54.8,0,0,0,16.762-2.579" transform="translate(868.51 827.5)" fill="none" stroke="#364eec" stroke-miterlimit="10" stroke-width="6"/>
    <path id="パス_14" data-name="パス 14" d="M110.853,74.281a54.8,54.8,0,0,0,2.579-16.762,55.971,55.971,0,1,0-55.912,55.912,54.8,54.8,0,0,0,16.762-2.579" transform="translate(868.51 827.5)" fill="none" stroke="#364eec" stroke-miterlimit="10" stroke-width="6"/>
    <path id="パス_15" data-name="パス 15" d="M4.23,31.681A55.971,55.971,0,0,1,44.2,14.86a55.209,55.209,0,0,1,19.751,3.634,35.929,35.929,0,0,1,4.63,2.051" transform="translate(881.829 892.489)" fill="none" stroke="#364eec" stroke-miterlimit="10" stroke-width="6"/>
    <path id="パス_16" data-name="パス 16" d="M4.23,4.36A54.8,54.8,0,0,0,24.391,17.547,55.326,55.326,0,0,0,44.2,21.181a55.209,55.209,0,0,0,19.751-3.634A54.8,54.8,0,0,0,84.113,4.36" transform="translate(881.829 841.451)" fill="none" stroke="#364eec" stroke-miterlimit="10" stroke-width="6"/>
    <ellipse id="楕円形_12" data-name="楕円形 12" cx="22.388" cy="55.971" rx="22.388" ry="55.971" transform="translate(903.641 829.049)" fill="none" stroke="#364eec" stroke-miterlimit="10" stroke-width="6"/>
    <ellipse id="楕円形_13" data-name="楕円形 13" cx="22.388" cy="55.971" rx="22.388" ry="55.971" transform="translate(903.641 829.049)" fill="none" stroke="#364eec" stroke-miterlimit="10" stroke-width="6"/>
    <line id="線_9" data-name="線 9" x2="111.883" transform="translate(870.059 885.019)" fill="none" stroke="#364eec" stroke-miterlimit="10" stroke-width="6"/>
    <path id="パス_17" data-name="パス 17" d="M4.069,74.281A54.8,54.8,0,0,1,1.49,57.519,55.971,55.971,0,1,1,57.4,113.432a54.8,54.8,0,0,1-16.762-2.579" transform="translate(868.51 827.5)" fill="none" stroke="#364eec" stroke-miterlimit="10" stroke-width="6"/>
    <path id="パス_18" data-name="パス 18" d="M68.582,31.681A55.971,55.971,0,0,0,28.611,14.86,55.209,55.209,0,0,0,8.86,18.494a35.927,35.927,0,0,0-4.63,2.051" transform="translate(899.411 892.489)" fill="none" stroke="#364eec" stroke-miterlimit="10" stroke-width="6"/>
  </g>
</svg>
