<svg xmlns="http://www.w3.org/2000/svg" width="88.227" height="78.077" viewBox="0 0 88.227 78.077">
  <g id="iikoto-icon-single2" transform="translate(-1.5 -3.52)">
    <ellipse id="楕円形_9" data-name="楕円形 9" cx="6.56" cy="6.657" rx="6.56" ry="6.657" transform="translate(39.053 6.52)" fill="none" stroke="#364eec" stroke-miterlimit="10" stroke-width="6"/>
    <path id="パス_9" data-name="パス 9" d="M9.14,15.308h0A9.9,9.9,0,0,1,18.963,5.34h0a10.431,10.431,0,0,1,6.488,2.483c1.677,1.117,3.335,4.1,3.335,7.484" transform="translate(26.651 17.534)" fill="none" stroke="#364eec" stroke-miterlimit="10" stroke-width="6"/>
    <ellipse id="楕円形_10" data-name="楕円形 10" cx="6.56" cy="6.657" rx="6.56" ry="6.657" transform="translate(70.344 54.762)" fill="none" stroke="#364eec" stroke-miterlimit="10" stroke-width="6"/>
    <path id="パス_10" data-name="パス 10" d="M16.77,30.612h0a9.931,9.931,0,0,1,9.857-10h0a9.931,9.931,0,0,1,9.823,10h0" transform="translate(50.277 50.985)" fill="none" stroke="#364eec" stroke-miterlimit="10" stroke-width="6"/>
    <ellipse id="楕円形_11" data-name="楕円形 11" cx="6.56" cy="6.657" rx="6.56" ry="6.657" transform="translate(7.763 54.762)" fill="none" stroke="#364eec" stroke-miterlimit="10" stroke-width="6"/>
    <path id="パス_11" data-name="パス 11" d="M1.5,30.612h0a9.931,9.931,0,0,1,9.823-10h0a9.931,9.931,0,0,1,9.857,10h0" transform="translate(3 50.985)" fill="none" stroke="#364eec" stroke-miterlimit="10" stroke-width="6"/>
    <line id="線_7" data-name="線 7" y2="16.624" transform="translate(45.614 37.097)" fill="none" stroke="#364eec" stroke-miterlimit="10" stroke-width="6"/>
    <path id="パス_12" data-name="パス 12" d="M8.18,23.932l13.12-10,13.12,10" transform="translate(24.313 39.565)" fill="none" stroke="#364eec" stroke-miterlimit="10" stroke-width="6"/>
  </g>
</svg>
