<svg xmlns="http://www.w3.org/2000/svg" xmlns:xlink="http://www.w3.org/1999/xlink" width="17" height="34" viewBox="0 0 17 34">
  <defs>
    <clipPath id="clip-path">
      <rect id="長方形_489" data-name="長方形 489" width="34" height="17" transform="translate(-10856 742)" fill="#fff" stroke="#707070" stroke-width="1"/>
    </clipPath>
    <clipPath id="clip-path-2">
      <rect id="長方形_488" data-name="長方形 488" width="34" height="350" transform="translate(484 814)" fill="#fff" stroke="#707070" stroke-width="1"/>
    </clipPath>
    <clipPath id="clip-path-3">
      <rect width="1250" height="34" fill="none"/>
    </clipPath>
    <clipPath id="clip-path-4">
      <rect id="長方形_433" data-name="長方形 433" width="86" height="20" transform="translate(149.739 1666.233)" fill="#03bf56"/>
    </clipPath>
    <clipPath id="clip-path-5">
      <rect id="長方形_432" data-name="長方形 432" width="722" height="30" transform="translate(-0.103 -0.135)" fill="#fff" stroke="#707070" stroke-width="1"/>
    </clipPath>
    <clipPath id="clip-path-6">
      <rect id="長方形_431" data-name="長方形 431" width="929.711" height="23.519" fill="none"/>
    </clipPath>
  </defs>
  <g id="wave-tate" transform="translate(759 10856) rotate(90)" clip-path="url(#clip-path)">
    <g id="マスクグループ_274" data-name="マスクグループ 274" transform="translate(-9718 248) rotate(90)" clip-path="url(#clip-path-2)">
      <g id="リピートグリッド_11" data-name="リピートグリッド 11" transform="translate(518 814) rotate(90)" clip-path="url(#clip-path-3)">
        <g transform="translate(-150 -1666)">
          <g id="マスクグループ_237" data-name="マスクグループ 237" transform="translate(0.261 6.767)" clip-path="url(#clip-path-4)">
            <g id="マスクグループ_236" data-name="マスクグループ 236" transform="translate(101.843 1656.369)" clip-path="url(#clip-path-5)">
              <g id="グループ_438" data-name="グループ 438" transform="translate(-86.96 6.579)">
                <g id="グループ_437" data-name="グループ 437" transform="translate(0 0)" clip-path="url(#clip-path-6)">
                  <path id="パス_130" data-name="パス 130" d="M1.973,1.535l9.1,11.694c4.269,5.488,11.255,5.487,15.524,0l1.335-1.716c4.269-5.488,11.256-5.488,15.525,0l1.335,1.716c4.269,5.488,11.255,5.488,15.525,0l1.335-1.716c4.27-5.488,11.256-5.488,15.525,0l1.335,1.716c4.269,5.488,11.255,5.488,15.525,0l1.335-1.717c4.27-5.488,11.256-5.487,15.525,0l1.335,1.716c4.269,5.488,11.256,5.488,15.525,0l1.336-1.717c4.269-5.488,11.256-5.487,15.525,0l1.335,1.716c4.269,5.488,11.256,5.488,15.525,0l1.335-1.717c4.27-5.488,11.256-5.487,15.525,0l1.335,1.716c4.269,5.488,11.255,5.488,15.525,0l1.335-1.717c4.27-5.488,11.256-5.487,15.525,0l1.335,1.716c4.269,5.488,11.256,5.488,15.525,0l1.335-1.717c4.27-5.488,11.256-5.487,15.525,0l1.335,1.716c4.27,5.488,11.256,5.488,15.525,0l1.335-1.716c4.269-5.488,11.256-5.488,15.525,0l1.335,1.717c4.27,5.488,11.256,5.487,15.525,0l1.335-1.716c4.269-5.488,11.256-5.488,15.525,0l1.335,1.716c4.27,5.488,11.256,5.488,15.525,0l1.336-1.717c4.269-5.488,11.256-5.487,15.525,0l1.335,1.716c4.269,5.488,11.256,5.488,15.525,0l1.335-1.716c4.269-5.488,11.256-5.488,15.525,0l1.335,1.716c4.27,5.488,11.256,5.488,15.525,0l1.335-1.717c4.27-5.488,11.256-5.488,15.525,0l1.336,1.717c4.269,5.488,11.256,5.488,15.525,0l1.335-1.717c4.27-5.488,11.256-5.487,15.524,0l1.334,1.714c4.269,5.488,11.255,5.489,15.524,0l1.336-1.717c4.269-5.488,11.256-5.487,15.524,0l1.335,1.716c4.269,5.488,11.254,5.488,15.523,0L500,11.513c4.269-5.488,11.255-5.488,15.525,0l1.335,1.716c4.27,5.488,11.255,5.488,15.525,0l1.334-1.716c4.269-5.488,11.255-5.488,15.525,0l1.335,1.716c4.269,5.488,11.256,5.488,15.525,0l1.336-1.717c4.27-5.488,11.256-5.487,15.525,0l1.335,1.716c4.269,5.488,11.256,5.488,15.525,0l1.335-1.716c4.269-5.488,11.255-5.488,15.525,0l1.335,1.716c4.27,5.488,11.256,5.488,15.525,0l1.335-1.716c4.269-5.488,11.255-5.488,15.525,0l1.335,1.717c4.27,5.488,11.256,5.488,15.526,0l1.336-1.717c4.27-5.488,11.256-5.488,15.526,0l1.336,1.717c4.269,5.488,11.256,5.488,15.525,0l1.336-1.717c4.269-5.488,11.256-5.488,15.525,0l1.336,1.717c4.27,5.488,11.256,5.488,15.526,0l1.336-1.717c4.27-5.488,11.256-5.488,15.526,0l1.336,1.717c4.27,5.488,11.257,5.488,15.526,0l1.336-1.717c4.27-5.488,11.256-5.487,15.525,0l1.335,1.716c4.269,5.488,11.255,5.488,15.525,0l1.336-1.717c4.27-5.488,11.256-5.488,15.525,0l1.336,1.717c4.27,5.488,11.257,5.488,15.526,0l1.337-1.718c4.27-5.487,11.257-5.487,15.526,0l1.337,1.718c4.27,5.487,11.257,5.487,15.527,0l1.336-1.718c4.27-5.487,11.257-5.487,15.527,0l1.337,1.718c4.27,5.487,11.258,5.488,15.528,0l1.338-1.719c4.27-5.487,11.258-5.487,15.528,0l9.1,11.695" transform="translate(-0.785 -0.611)" fill="none" stroke="#03bf56" stroke-miterlimit="10" stroke-width="4"/>
                </g>
              </g>
            </g>
          </g>
        </g>
        <g transform="translate(-82 -1666)">
          <g id="マスクグループ_239" data-name="マスクグループ 239" transform="translate(0.261 6.767)" clip-path="url(#clip-path-4)">
            <g id="マスクグループ_238" data-name="マスクグループ 238" transform="translate(101.843 1656.369)" clip-path="url(#clip-path-5)">
              <g id="グループ_440" data-name="グループ 440" transform="translate(-86.96 6.579)">
                <g id="グループ_439" data-name="グループ 439" transform="translate(0 0)" clip-path="url(#clip-path-6)">
                  <path id="パス_131" data-name="パス 131" d="M1.973,1.535l9.1,11.694c4.269,5.488,11.255,5.487,15.524,0l1.335-1.716c4.269-5.488,11.256-5.488,15.525,0l1.335,1.716c4.269,5.488,11.255,5.488,15.525,0l1.335-1.716c4.27-5.488,11.256-5.488,15.525,0l1.335,1.716c4.269,5.488,11.255,5.488,15.525,0l1.335-1.717c4.27-5.488,11.256-5.487,15.525,0l1.335,1.716c4.269,5.488,11.256,5.488,15.525,0l1.336-1.717c4.269-5.488,11.256-5.487,15.525,0l1.335,1.716c4.269,5.488,11.256,5.488,15.525,0l1.335-1.717c4.27-5.488,11.256-5.487,15.525,0l1.335,1.716c4.269,5.488,11.255,5.488,15.525,0l1.335-1.717c4.27-5.488,11.256-5.487,15.525,0l1.335,1.716c4.269,5.488,11.256,5.488,15.525,0l1.335-1.717c4.27-5.488,11.256-5.487,15.525,0l1.335,1.716c4.27,5.488,11.256,5.488,15.525,0l1.335-1.716c4.269-5.488,11.256-5.488,15.525,0l1.335,1.717c4.27,5.488,11.256,5.487,15.525,0l1.335-1.716c4.269-5.488,11.256-5.488,15.525,0l1.335,1.716c4.27,5.488,11.256,5.488,15.525,0l1.336-1.717c4.269-5.488,11.256-5.487,15.525,0l1.335,1.716c4.269,5.488,11.256,5.488,15.525,0l1.335-1.716c4.269-5.488,11.256-5.488,15.525,0l1.335,1.716c4.27,5.488,11.256,5.488,15.525,0l1.335-1.717c4.27-5.488,11.256-5.488,15.525,0l1.336,1.717c4.269,5.488,11.256,5.488,15.525,0l1.335-1.717c4.27-5.488,11.256-5.487,15.524,0l1.334,1.714c4.269,5.488,11.255,5.489,15.524,0l1.336-1.717c4.269-5.488,11.256-5.487,15.524,0l1.335,1.716c4.269,5.488,11.254,5.488,15.523,0L500,11.513c4.269-5.488,11.255-5.488,15.525,0l1.335,1.716c4.27,5.488,11.255,5.488,15.525,0l1.334-1.716c4.269-5.488,11.255-5.488,15.525,0l1.335,1.716c4.269,5.488,11.256,5.488,15.525,0l1.336-1.717c4.27-5.488,11.256-5.487,15.525,0l1.335,1.716c4.269,5.488,11.256,5.488,15.525,0l1.335-1.716c4.269-5.488,11.255-5.488,15.525,0l1.335,1.716c4.27,5.488,11.256,5.488,15.525,0l1.335-1.716c4.269-5.488,11.255-5.488,15.525,0l1.335,1.717c4.27,5.488,11.256,5.488,15.526,0l1.336-1.717c4.27-5.488,11.256-5.488,15.526,0l1.336,1.717c4.269,5.488,11.256,5.488,15.525,0l1.336-1.717c4.269-5.488,11.256-5.488,15.525,0l1.336,1.717c4.27,5.488,11.256,5.488,15.526,0l1.336-1.717c4.27-5.488,11.256-5.488,15.526,0l1.336,1.717c4.27,5.488,11.257,5.488,15.526,0l1.336-1.717c4.27-5.488,11.256-5.487,15.525,0l1.335,1.716c4.269,5.488,11.255,5.488,15.525,0l1.336-1.717c4.27-5.488,11.256-5.488,15.525,0l1.336,1.717c4.27,5.488,11.257,5.488,15.526,0l1.337-1.718c4.27-5.487,11.257-5.487,15.526,0l1.337,1.718c4.27,5.487,11.257,5.487,15.527,0l1.336-1.718c4.27-5.487,11.257-5.487,15.527,0l1.337,1.718c4.27,5.487,11.258,5.488,15.528,0l1.338-1.719c4.27-5.487,11.258-5.487,15.528,0l9.1,11.695" transform="translate(-0.785 -0.611)" fill="none" stroke="#03bf56" stroke-miterlimit="10" stroke-width="4"/>
                </g>
              </g>
            </g>
          </g>
        </g>
        <g transform="translate(-14 -1666)">
          <g id="マスクグループ_241" data-name="マスクグループ 241" transform="translate(0.261 6.767)" clip-path="url(#clip-path-4)">
            <g id="マスクグループ_240" data-name="マスクグループ 240" transform="translate(101.843 1656.369)" clip-path="url(#clip-path-5)">
              <g id="グループ_442" data-name="グループ 442" transform="translate(-86.96 6.579)">
                <g id="グループ_441" data-name="グループ 441" transform="translate(0 0)" clip-path="url(#clip-path-6)">
                  <path id="パス_132" data-name="パス 132" d="M1.973,1.535l9.1,11.694c4.269,5.488,11.255,5.487,15.524,0l1.335-1.716c4.269-5.488,11.256-5.488,15.525,0l1.335,1.716c4.269,5.488,11.255,5.488,15.525,0l1.335-1.716c4.27-5.488,11.256-5.488,15.525,0l1.335,1.716c4.269,5.488,11.255,5.488,15.525,0l1.335-1.717c4.27-5.488,11.256-5.487,15.525,0l1.335,1.716c4.269,5.488,11.256,5.488,15.525,0l1.336-1.717c4.269-5.488,11.256-5.487,15.525,0l1.335,1.716c4.269,5.488,11.256,5.488,15.525,0l1.335-1.717c4.27-5.488,11.256-5.487,15.525,0l1.335,1.716c4.269,5.488,11.255,5.488,15.525,0l1.335-1.717c4.27-5.488,11.256-5.487,15.525,0l1.335,1.716c4.269,5.488,11.256,5.488,15.525,0l1.335-1.717c4.27-5.488,11.256-5.487,15.525,0l1.335,1.716c4.27,5.488,11.256,5.488,15.525,0l1.335-1.716c4.269-5.488,11.256-5.488,15.525,0l1.335,1.717c4.27,5.488,11.256,5.487,15.525,0l1.335-1.716c4.269-5.488,11.256-5.488,15.525,0l1.335,1.716c4.27,5.488,11.256,5.488,15.525,0l1.336-1.717c4.269-5.488,11.256-5.487,15.525,0l1.335,1.716c4.269,5.488,11.256,5.488,15.525,0l1.335-1.716c4.269-5.488,11.256-5.488,15.525,0l1.335,1.716c4.27,5.488,11.256,5.488,15.525,0l1.335-1.717c4.27-5.488,11.256-5.488,15.525,0l1.336,1.717c4.269,5.488,11.256,5.488,15.525,0l1.335-1.717c4.27-5.488,11.256-5.487,15.524,0l1.334,1.714c4.269,5.488,11.255,5.489,15.524,0l1.336-1.717c4.269-5.488,11.256-5.487,15.524,0l1.335,1.716c4.269,5.488,11.254,5.488,15.523,0L500,11.513c4.269-5.488,11.255-5.488,15.525,0l1.335,1.716c4.27,5.488,11.255,5.488,15.525,0l1.334-1.716c4.269-5.488,11.255-5.488,15.525,0l1.335,1.716c4.269,5.488,11.256,5.488,15.525,0l1.336-1.717c4.27-5.488,11.256-5.487,15.525,0l1.335,1.716c4.269,5.488,11.256,5.488,15.525,0l1.335-1.716c4.269-5.488,11.255-5.488,15.525,0l1.335,1.716c4.27,5.488,11.256,5.488,15.525,0l1.335-1.716c4.269-5.488,11.255-5.488,15.525,0l1.335,1.717c4.27,5.488,11.256,5.488,15.526,0l1.336-1.717c4.27-5.488,11.256-5.488,15.526,0l1.336,1.717c4.269,5.488,11.256,5.488,15.525,0l1.336-1.717c4.269-5.488,11.256-5.488,15.525,0l1.336,1.717c4.27,5.488,11.256,5.488,15.526,0l1.336-1.717c4.27-5.488,11.256-5.488,15.526,0l1.336,1.717c4.27,5.488,11.257,5.488,15.526,0l1.336-1.717c4.27-5.488,11.256-5.487,15.525,0l1.335,1.716c4.269,5.488,11.255,5.488,15.525,0l1.336-1.717c4.27-5.488,11.256-5.488,15.525,0l1.336,1.717c4.27,5.488,11.257,5.488,15.526,0l1.337-1.718c4.27-5.487,11.257-5.487,15.526,0l1.337,1.718c4.27,5.487,11.257,5.487,15.527,0l1.336-1.718c4.27-5.487,11.257-5.487,15.527,0l1.337,1.718c4.27,5.487,11.258,5.488,15.528,0l1.338-1.719c4.27-5.487,11.258-5.487,15.528,0l9.1,11.695" transform="translate(-0.785 -0.611)" fill="none" stroke="#03bf56" stroke-miterlimit="10" stroke-width="4"/>
                </g>
              </g>
            </g>
          </g>
        </g>
        <g transform="translate(54 -1666)">
          <g id="マスクグループ_243" data-name="マスクグループ 243" transform="translate(0.261 6.767)" clip-path="url(#clip-path-4)">
            <g id="マスクグループ_242" data-name="マスクグループ 242" transform="translate(101.843 1656.369)" clip-path="url(#clip-path-5)">
              <g id="グループ_444" data-name="グループ 444" transform="translate(-86.96 6.579)">
                <g id="グループ_443" data-name="グループ 443" transform="translate(0 0)" clip-path="url(#clip-path-6)">
                  <path id="パス_133" data-name="パス 133" d="M1.973,1.535l9.1,11.694c4.269,5.488,11.255,5.487,15.524,0l1.335-1.716c4.269-5.488,11.256-5.488,15.525,0l1.335,1.716c4.269,5.488,11.255,5.488,15.525,0l1.335-1.716c4.27-5.488,11.256-5.488,15.525,0l1.335,1.716c4.269,5.488,11.255,5.488,15.525,0l1.335-1.717c4.27-5.488,11.256-5.487,15.525,0l1.335,1.716c4.269,5.488,11.256,5.488,15.525,0l1.336-1.717c4.269-5.488,11.256-5.487,15.525,0l1.335,1.716c4.269,5.488,11.256,5.488,15.525,0l1.335-1.717c4.27-5.488,11.256-5.487,15.525,0l1.335,1.716c4.269,5.488,11.255,5.488,15.525,0l1.335-1.717c4.27-5.488,11.256-5.487,15.525,0l1.335,1.716c4.269,5.488,11.256,5.488,15.525,0l1.335-1.717c4.27-5.488,11.256-5.487,15.525,0l1.335,1.716c4.27,5.488,11.256,5.488,15.525,0l1.335-1.716c4.269-5.488,11.256-5.488,15.525,0l1.335,1.717c4.27,5.488,11.256,5.487,15.525,0l1.335-1.716c4.269-5.488,11.256-5.488,15.525,0l1.335,1.716c4.27,5.488,11.256,5.488,15.525,0l1.336-1.717c4.269-5.488,11.256-5.487,15.525,0l1.335,1.716c4.269,5.488,11.256,5.488,15.525,0l1.335-1.716c4.269-5.488,11.256-5.488,15.525,0l1.335,1.716c4.27,5.488,11.256,5.488,15.525,0l1.335-1.717c4.27-5.488,11.256-5.488,15.525,0l1.336,1.717c4.269,5.488,11.256,5.488,15.525,0l1.335-1.717c4.27-5.488,11.256-5.487,15.524,0l1.334,1.714c4.269,5.488,11.255,5.489,15.524,0l1.336-1.717c4.269-5.488,11.256-5.487,15.524,0l1.335,1.716c4.269,5.488,11.254,5.488,15.523,0L500,11.513c4.269-5.488,11.255-5.488,15.525,0l1.335,1.716c4.27,5.488,11.255,5.488,15.525,0l1.334-1.716c4.269-5.488,11.255-5.488,15.525,0l1.335,1.716c4.269,5.488,11.256,5.488,15.525,0l1.336-1.717c4.27-5.488,11.256-5.487,15.525,0l1.335,1.716c4.269,5.488,11.256,5.488,15.525,0l1.335-1.716c4.269-5.488,11.255-5.488,15.525,0l1.335,1.716c4.27,5.488,11.256,5.488,15.525,0l1.335-1.716c4.269-5.488,11.255-5.488,15.525,0l1.335,1.717c4.27,5.488,11.256,5.488,15.526,0l1.336-1.717c4.27-5.488,11.256-5.488,15.526,0l1.336,1.717c4.269,5.488,11.256,5.488,15.525,0l1.336-1.717c4.269-5.488,11.256-5.488,15.525,0l1.336,1.717c4.27,5.488,11.256,5.488,15.526,0l1.336-1.717c4.27-5.488,11.256-5.488,15.526,0l1.336,1.717c4.27,5.488,11.257,5.488,15.526,0l1.336-1.717c4.27-5.488,11.256-5.487,15.525,0l1.335,1.716c4.269,5.488,11.255,5.488,15.525,0l1.336-1.717c4.27-5.488,11.256-5.488,15.525,0l1.336,1.717c4.27,5.488,11.257,5.488,15.526,0l1.337-1.718c4.27-5.487,11.257-5.487,15.526,0l1.337,1.718c4.27,5.487,11.257,5.487,15.527,0l1.336-1.718c4.27-5.487,11.257-5.487,15.527,0l1.337,1.718c4.27,5.487,11.258,5.488,15.528,0l1.338-1.719c4.27-5.487,11.258-5.487,15.528,0l9.1,11.695" transform="translate(-0.785 -0.611)" fill="none" stroke="#03bf56" stroke-miterlimit="10" stroke-width="4"/>
                </g>
              </g>
            </g>
          </g>
        </g>
        <g transform="translate(122 -1666)">
          <g id="マスクグループ_245" data-name="マスクグループ 245" transform="translate(0.261 6.767)" clip-path="url(#clip-path-4)">
            <g id="マスクグループ_244" data-name="マスクグループ 244" transform="translate(101.843 1656.369)" clip-path="url(#clip-path-5)">
              <g id="グループ_446" data-name="グループ 446" transform="translate(-86.96 6.579)">
                <g id="グループ_445" data-name="グループ 445" transform="translate(0 0)" clip-path="url(#clip-path-6)">
                  <path id="パス_134" data-name="パス 134" d="M1.973,1.535l9.1,11.694c4.269,5.488,11.255,5.487,15.524,0l1.335-1.716c4.269-5.488,11.256-5.488,15.525,0l1.335,1.716c4.269,5.488,11.255,5.488,15.525,0l1.335-1.716c4.27-5.488,11.256-5.488,15.525,0l1.335,1.716c4.269,5.488,11.255,5.488,15.525,0l1.335-1.717c4.27-5.488,11.256-5.487,15.525,0l1.335,1.716c4.269,5.488,11.256,5.488,15.525,0l1.336-1.717c4.269-5.488,11.256-5.487,15.525,0l1.335,1.716c4.269,5.488,11.256,5.488,15.525,0l1.335-1.717c4.27-5.488,11.256-5.487,15.525,0l1.335,1.716c4.269,5.488,11.255,5.488,15.525,0l1.335-1.717c4.27-5.488,11.256-5.487,15.525,0l1.335,1.716c4.269,5.488,11.256,5.488,15.525,0l1.335-1.717c4.27-5.488,11.256-5.487,15.525,0l1.335,1.716c4.27,5.488,11.256,5.488,15.525,0l1.335-1.716c4.269-5.488,11.256-5.488,15.525,0l1.335,1.717c4.27,5.488,11.256,5.487,15.525,0l1.335-1.716c4.269-5.488,11.256-5.488,15.525,0l1.335,1.716c4.27,5.488,11.256,5.488,15.525,0l1.336-1.717c4.269-5.488,11.256-5.487,15.525,0l1.335,1.716c4.269,5.488,11.256,5.488,15.525,0l1.335-1.716c4.269-5.488,11.256-5.488,15.525,0l1.335,1.716c4.27,5.488,11.256,5.488,15.525,0l1.335-1.717c4.27-5.488,11.256-5.488,15.525,0l1.336,1.717c4.269,5.488,11.256,5.488,15.525,0l1.335-1.717c4.27-5.488,11.256-5.487,15.524,0l1.334,1.714c4.269,5.488,11.255,5.489,15.524,0l1.336-1.717c4.269-5.488,11.256-5.487,15.524,0l1.335,1.716c4.269,5.488,11.254,5.488,15.523,0L500,11.513c4.269-5.488,11.255-5.488,15.525,0l1.335,1.716c4.27,5.488,11.255,5.488,15.525,0l1.334-1.716c4.269-5.488,11.255-5.488,15.525,0l1.335,1.716c4.269,5.488,11.256,5.488,15.525,0l1.336-1.717c4.27-5.488,11.256-5.487,15.525,0l1.335,1.716c4.269,5.488,11.256,5.488,15.525,0l1.335-1.716c4.269-5.488,11.255-5.488,15.525,0l1.335,1.716c4.27,5.488,11.256,5.488,15.525,0l1.335-1.716c4.269-5.488,11.255-5.488,15.525,0l1.335,1.717c4.27,5.488,11.256,5.488,15.526,0l1.336-1.717c4.27-5.488,11.256-5.488,15.526,0l1.336,1.717c4.269,5.488,11.256,5.488,15.525,0l1.336-1.717c4.269-5.488,11.256-5.488,15.525,0l1.336,1.717c4.27,5.488,11.256,5.488,15.526,0l1.336-1.717c4.27-5.488,11.256-5.488,15.526,0l1.336,1.717c4.27,5.488,11.257,5.488,15.526,0l1.336-1.717c4.27-5.488,11.256-5.487,15.525,0l1.335,1.716c4.269,5.488,11.255,5.488,15.525,0l1.336-1.717c4.27-5.488,11.256-5.488,15.525,0l1.336,1.717c4.27,5.488,11.257,5.488,15.526,0l1.337-1.718c4.27-5.487,11.257-5.487,15.526,0l1.337,1.718c4.27,5.487,11.257,5.487,15.527,0l1.336-1.718c4.27-5.487,11.257-5.487,15.527,0l1.337,1.718c4.27,5.487,11.258,5.488,15.528,0l1.338-1.719c4.27-5.487,11.258-5.487,15.528,0l9.1,11.695" transform="translate(-0.785 -0.611)" fill="none" stroke="#03bf56" stroke-miterlimit="10" stroke-width="4"/>
                </g>
              </g>
            </g>
          </g>
        </g>
        <g transform="translate(190 -1666)">
          <g id="マスクグループ_247" data-name="マスクグループ 247" transform="translate(0.261 6.767)" clip-path="url(#clip-path-4)">
            <g id="マスクグループ_246" data-name="マスクグループ 246" transform="translate(101.843 1656.369)" clip-path="url(#clip-path-5)">
              <g id="グループ_448" data-name="グループ 448" transform="translate(-86.96 6.579)">
                <g id="グループ_447" data-name="グループ 447" transform="translate(0 0)" clip-path="url(#clip-path-6)">
                  <path id="パス_135" data-name="パス 135" d="M1.973,1.535l9.1,11.694c4.269,5.488,11.255,5.487,15.524,0l1.335-1.716c4.269-5.488,11.256-5.488,15.525,0l1.335,1.716c4.269,5.488,11.255,5.488,15.525,0l1.335-1.716c4.27-5.488,11.256-5.488,15.525,0l1.335,1.716c4.269,5.488,11.255,5.488,15.525,0l1.335-1.717c4.27-5.488,11.256-5.487,15.525,0l1.335,1.716c4.269,5.488,11.256,5.488,15.525,0l1.336-1.717c4.269-5.488,11.256-5.487,15.525,0l1.335,1.716c4.269,5.488,11.256,5.488,15.525,0l1.335-1.717c4.27-5.488,11.256-5.487,15.525,0l1.335,1.716c4.269,5.488,11.255,5.488,15.525,0l1.335-1.717c4.27-5.488,11.256-5.487,15.525,0l1.335,1.716c4.269,5.488,11.256,5.488,15.525,0l1.335-1.717c4.27-5.488,11.256-5.487,15.525,0l1.335,1.716c4.27,5.488,11.256,5.488,15.525,0l1.335-1.716c4.269-5.488,11.256-5.488,15.525,0l1.335,1.717c4.27,5.488,11.256,5.487,15.525,0l1.335-1.716c4.269-5.488,11.256-5.488,15.525,0l1.335,1.716c4.27,5.488,11.256,5.488,15.525,0l1.336-1.717c4.269-5.488,11.256-5.487,15.525,0l1.335,1.716c4.269,5.488,11.256,5.488,15.525,0l1.335-1.716c4.269-5.488,11.256-5.488,15.525,0l1.335,1.716c4.27,5.488,11.256,5.488,15.525,0l1.335-1.717c4.27-5.488,11.256-5.488,15.525,0l1.336,1.717c4.269,5.488,11.256,5.488,15.525,0l1.335-1.717c4.27-5.488,11.256-5.487,15.524,0l1.334,1.714c4.269,5.488,11.255,5.489,15.524,0l1.336-1.717c4.269-5.488,11.256-5.487,15.524,0l1.335,1.716c4.269,5.488,11.254,5.488,15.523,0L500,11.513c4.269-5.488,11.255-5.488,15.525,0l1.335,1.716c4.27,5.488,11.255,5.488,15.525,0l1.334-1.716c4.269-5.488,11.255-5.488,15.525,0l1.335,1.716c4.269,5.488,11.256,5.488,15.525,0l1.336-1.717c4.27-5.488,11.256-5.487,15.525,0l1.335,1.716c4.269,5.488,11.256,5.488,15.525,0l1.335-1.716c4.269-5.488,11.255-5.488,15.525,0l1.335,1.716c4.27,5.488,11.256,5.488,15.525,0l1.335-1.716c4.269-5.488,11.255-5.488,15.525,0l1.335,1.717c4.27,5.488,11.256,5.488,15.526,0l1.336-1.717c4.27-5.488,11.256-5.488,15.526,0l1.336,1.717c4.269,5.488,11.256,5.488,15.525,0l1.336-1.717c4.269-5.488,11.256-5.488,15.525,0l1.336,1.717c4.27,5.488,11.256,5.488,15.526,0l1.336-1.717c4.27-5.488,11.256-5.488,15.526,0l1.336,1.717c4.27,5.488,11.257,5.488,15.526,0l1.336-1.717c4.27-5.488,11.256-5.487,15.525,0l1.335,1.716c4.269,5.488,11.255,5.488,15.525,0l1.336-1.717c4.27-5.488,11.256-5.488,15.525,0l1.336,1.717c4.27,5.488,11.257,5.488,15.526,0l1.337-1.718c4.27-5.487,11.257-5.487,15.526,0l1.337,1.718c4.27,5.487,11.257,5.487,15.527,0l1.336-1.718c4.27-5.487,11.257-5.487,15.527,0l1.337,1.718c4.27,5.487,11.258,5.488,15.528,0l1.338-1.719c4.27-5.487,11.258-5.487,15.528,0l9.1,11.695" transform="translate(-0.785 -0.611)" fill="none" stroke="#03bf56" stroke-miterlimit="10" stroke-width="4"/>
                </g>
              </g>
            </g>
          </g>
        </g>
        <g transform="translate(258 -1666)">
          <g id="マスクグループ_249" data-name="マスクグループ 249" transform="translate(0.261 6.767)" clip-path="url(#clip-path-4)">
            <g id="マスクグループ_248" data-name="マスクグループ 248" transform="translate(101.843 1656.369)" clip-path="url(#clip-path-5)">
              <g id="グループ_450" data-name="グループ 450" transform="translate(-86.96 6.579)">
                <g id="グループ_449" data-name="グループ 449" transform="translate(0 0)" clip-path="url(#clip-path-6)">
                  <path id="パス_136" data-name="パス 136" d="M1.973,1.535l9.1,11.694c4.269,5.488,11.255,5.487,15.524,0l1.335-1.716c4.269-5.488,11.256-5.488,15.525,0l1.335,1.716c4.269,5.488,11.255,5.488,15.525,0l1.335-1.716c4.27-5.488,11.256-5.488,15.525,0l1.335,1.716c4.269,5.488,11.255,5.488,15.525,0l1.335-1.717c4.27-5.488,11.256-5.487,15.525,0l1.335,1.716c4.269,5.488,11.256,5.488,15.525,0l1.336-1.717c4.269-5.488,11.256-5.487,15.525,0l1.335,1.716c4.269,5.488,11.256,5.488,15.525,0l1.335-1.717c4.27-5.488,11.256-5.487,15.525,0l1.335,1.716c4.269,5.488,11.255,5.488,15.525,0l1.335-1.717c4.27-5.488,11.256-5.487,15.525,0l1.335,1.716c4.269,5.488,11.256,5.488,15.525,0l1.335-1.717c4.27-5.488,11.256-5.487,15.525,0l1.335,1.716c4.27,5.488,11.256,5.488,15.525,0l1.335-1.716c4.269-5.488,11.256-5.488,15.525,0l1.335,1.717c4.27,5.488,11.256,5.487,15.525,0l1.335-1.716c4.269-5.488,11.256-5.488,15.525,0l1.335,1.716c4.27,5.488,11.256,5.488,15.525,0l1.336-1.717c4.269-5.488,11.256-5.487,15.525,0l1.335,1.716c4.269,5.488,11.256,5.488,15.525,0l1.335-1.716c4.269-5.488,11.256-5.488,15.525,0l1.335,1.716c4.27,5.488,11.256,5.488,15.525,0l1.335-1.717c4.27-5.488,11.256-5.488,15.525,0l1.336,1.717c4.269,5.488,11.256,5.488,15.525,0l1.335-1.717c4.27-5.488,11.256-5.487,15.524,0l1.334,1.714c4.269,5.488,11.255,5.489,15.524,0l1.336-1.717c4.269-5.488,11.256-5.487,15.524,0l1.335,1.716c4.269,5.488,11.254,5.488,15.523,0L500,11.513c4.269-5.488,11.255-5.488,15.525,0l1.335,1.716c4.27,5.488,11.255,5.488,15.525,0l1.334-1.716c4.269-5.488,11.255-5.488,15.525,0l1.335,1.716c4.269,5.488,11.256,5.488,15.525,0l1.336-1.717c4.27-5.488,11.256-5.487,15.525,0l1.335,1.716c4.269,5.488,11.256,5.488,15.525,0l1.335-1.716c4.269-5.488,11.255-5.488,15.525,0l1.335,1.716c4.27,5.488,11.256,5.488,15.525,0l1.335-1.716c4.269-5.488,11.255-5.488,15.525,0l1.335,1.717c4.27,5.488,11.256,5.488,15.526,0l1.336-1.717c4.27-5.488,11.256-5.488,15.526,0l1.336,1.717c4.269,5.488,11.256,5.488,15.525,0l1.336-1.717c4.269-5.488,11.256-5.488,15.525,0l1.336,1.717c4.27,5.488,11.256,5.488,15.526,0l1.336-1.717c4.27-5.488,11.256-5.488,15.526,0l1.336,1.717c4.27,5.488,11.257,5.488,15.526,0l1.336-1.717c4.27-5.488,11.256-5.487,15.525,0l1.335,1.716c4.269,5.488,11.255,5.488,15.525,0l1.336-1.717c4.27-5.488,11.256-5.488,15.525,0l1.336,1.717c4.27,5.488,11.257,5.488,15.526,0l1.337-1.718c4.27-5.487,11.257-5.487,15.526,0l1.337,1.718c4.27,5.487,11.257,5.487,15.527,0l1.336-1.718c4.27-5.487,11.257-5.487,15.527,0l1.337,1.718c4.27,5.487,11.258,5.488,15.528,0l1.338-1.719c4.27-5.487,11.258-5.487,15.528,0l9.1,11.695" transform="translate(-0.785 -0.611)" fill="none" stroke="#03bf56" stroke-miterlimit="10" stroke-width="4"/>
                </g>
              </g>
            </g>
          </g>
        </g>
        <g transform="translate(326 -1666)">
          <g id="マスクグループ_251" data-name="マスクグループ 251" transform="translate(0.261 6.767)" clip-path="url(#clip-path-4)">
            <g id="マスクグループ_250" data-name="マスクグループ 250" transform="translate(101.843 1656.369)" clip-path="url(#clip-path-5)">
              <g id="グループ_452" data-name="グループ 452" transform="translate(-86.96 6.579)">
                <g id="グループ_451" data-name="グループ 451" transform="translate(0 0)" clip-path="url(#clip-path-6)">
                  <path id="パス_137" data-name="パス 137" d="M1.973,1.535l9.1,11.694c4.269,5.488,11.255,5.487,15.524,0l1.335-1.716c4.269-5.488,11.256-5.488,15.525,0l1.335,1.716c4.269,5.488,11.255,5.488,15.525,0l1.335-1.716c4.27-5.488,11.256-5.488,15.525,0l1.335,1.716c4.269,5.488,11.255,5.488,15.525,0l1.335-1.717c4.27-5.488,11.256-5.487,15.525,0l1.335,1.716c4.269,5.488,11.256,5.488,15.525,0l1.336-1.717c4.269-5.488,11.256-5.487,15.525,0l1.335,1.716c4.269,5.488,11.256,5.488,15.525,0l1.335-1.717c4.27-5.488,11.256-5.487,15.525,0l1.335,1.716c4.269,5.488,11.255,5.488,15.525,0l1.335-1.717c4.27-5.488,11.256-5.487,15.525,0l1.335,1.716c4.269,5.488,11.256,5.488,15.525,0l1.335-1.717c4.27-5.488,11.256-5.487,15.525,0l1.335,1.716c4.27,5.488,11.256,5.488,15.525,0l1.335-1.716c4.269-5.488,11.256-5.488,15.525,0l1.335,1.717c4.27,5.488,11.256,5.487,15.525,0l1.335-1.716c4.269-5.488,11.256-5.488,15.525,0l1.335,1.716c4.27,5.488,11.256,5.488,15.525,0l1.336-1.717c4.269-5.488,11.256-5.487,15.525,0l1.335,1.716c4.269,5.488,11.256,5.488,15.525,0l1.335-1.716c4.269-5.488,11.256-5.488,15.525,0l1.335,1.716c4.27,5.488,11.256,5.488,15.525,0l1.335-1.717c4.27-5.488,11.256-5.488,15.525,0l1.336,1.717c4.269,5.488,11.256,5.488,15.525,0l1.335-1.717c4.27-5.488,11.256-5.487,15.524,0l1.334,1.714c4.269,5.488,11.255,5.489,15.524,0l1.336-1.717c4.269-5.488,11.256-5.487,15.524,0l1.335,1.716c4.269,5.488,11.254,5.488,15.523,0L500,11.513c4.269-5.488,11.255-5.488,15.525,0l1.335,1.716c4.27,5.488,11.255,5.488,15.525,0l1.334-1.716c4.269-5.488,11.255-5.488,15.525,0l1.335,1.716c4.269,5.488,11.256,5.488,15.525,0l1.336-1.717c4.27-5.488,11.256-5.487,15.525,0l1.335,1.716c4.269,5.488,11.256,5.488,15.525,0l1.335-1.716c4.269-5.488,11.255-5.488,15.525,0l1.335,1.716c4.27,5.488,11.256,5.488,15.525,0l1.335-1.716c4.269-5.488,11.255-5.488,15.525,0l1.335,1.717c4.27,5.488,11.256,5.488,15.526,0l1.336-1.717c4.27-5.488,11.256-5.488,15.526,0l1.336,1.717c4.269,5.488,11.256,5.488,15.525,0l1.336-1.717c4.269-5.488,11.256-5.488,15.525,0l1.336,1.717c4.27,5.488,11.256,5.488,15.526,0l1.336-1.717c4.27-5.488,11.256-5.488,15.526,0l1.336,1.717c4.27,5.488,11.257,5.488,15.526,0l1.336-1.717c4.27-5.488,11.256-5.487,15.525,0l1.335,1.716c4.269,5.488,11.255,5.488,15.525,0l1.336-1.717c4.27-5.488,11.256-5.488,15.525,0l1.336,1.717c4.27,5.488,11.257,5.488,15.526,0l1.337-1.718c4.27-5.487,11.257-5.487,15.526,0l1.337,1.718c4.27,5.487,11.257,5.487,15.527,0l1.336-1.718c4.27-5.487,11.257-5.487,15.527,0l1.337,1.718c4.27,5.487,11.258,5.488,15.528,0l1.338-1.719c4.27-5.487,11.258-5.487,15.528,0l9.1,11.695" transform="translate(-0.785 -0.611)" fill="none" stroke="#03bf56" stroke-miterlimit="10" stroke-width="4"/>
                </g>
              </g>
            </g>
          </g>
        </g>
        <g transform="translate(394 -1666)">
          <g id="マスクグループ_253" data-name="マスクグループ 253" transform="translate(0.261 6.767)" clip-path="url(#clip-path-4)">
            <g id="マスクグループ_252" data-name="マスクグループ 252" transform="translate(101.843 1656.369)" clip-path="url(#clip-path-5)">
              <g id="グループ_454" data-name="グループ 454" transform="translate(-86.96 6.579)">
                <g id="グループ_453" data-name="グループ 453" transform="translate(0 0)" clip-path="url(#clip-path-6)">
                  <path id="パス_138" data-name="パス 138" d="M1.973,1.535l9.1,11.694c4.269,5.488,11.255,5.487,15.524,0l1.335-1.716c4.269-5.488,11.256-5.488,15.525,0l1.335,1.716c4.269,5.488,11.255,5.488,15.525,0l1.335-1.716c4.27-5.488,11.256-5.488,15.525,0l1.335,1.716c4.269,5.488,11.255,5.488,15.525,0l1.335-1.717c4.27-5.488,11.256-5.487,15.525,0l1.335,1.716c4.269,5.488,11.256,5.488,15.525,0l1.336-1.717c4.269-5.488,11.256-5.487,15.525,0l1.335,1.716c4.269,5.488,11.256,5.488,15.525,0l1.335-1.717c4.27-5.488,11.256-5.487,15.525,0l1.335,1.716c4.269,5.488,11.255,5.488,15.525,0l1.335-1.717c4.27-5.488,11.256-5.487,15.525,0l1.335,1.716c4.269,5.488,11.256,5.488,15.525,0l1.335-1.717c4.27-5.488,11.256-5.487,15.525,0l1.335,1.716c4.27,5.488,11.256,5.488,15.525,0l1.335-1.716c4.269-5.488,11.256-5.488,15.525,0l1.335,1.717c4.27,5.488,11.256,5.487,15.525,0l1.335-1.716c4.269-5.488,11.256-5.488,15.525,0l1.335,1.716c4.27,5.488,11.256,5.488,15.525,0l1.336-1.717c4.269-5.488,11.256-5.487,15.525,0l1.335,1.716c4.269,5.488,11.256,5.488,15.525,0l1.335-1.716c4.269-5.488,11.256-5.488,15.525,0l1.335,1.716c4.27,5.488,11.256,5.488,15.525,0l1.335-1.717c4.27-5.488,11.256-5.488,15.525,0l1.336,1.717c4.269,5.488,11.256,5.488,15.525,0l1.335-1.717c4.27-5.488,11.256-5.487,15.524,0l1.334,1.714c4.269,5.488,11.255,5.489,15.524,0l1.336-1.717c4.269-5.488,11.256-5.487,15.524,0l1.335,1.716c4.269,5.488,11.254,5.488,15.523,0L500,11.513c4.269-5.488,11.255-5.488,15.525,0l1.335,1.716c4.27,5.488,11.255,5.488,15.525,0l1.334-1.716c4.269-5.488,11.255-5.488,15.525,0l1.335,1.716c4.269,5.488,11.256,5.488,15.525,0l1.336-1.717c4.27-5.488,11.256-5.487,15.525,0l1.335,1.716c4.269,5.488,11.256,5.488,15.525,0l1.335-1.716c4.269-5.488,11.255-5.488,15.525,0l1.335,1.716c4.27,5.488,11.256,5.488,15.525,0l1.335-1.716c4.269-5.488,11.255-5.488,15.525,0l1.335,1.717c4.27,5.488,11.256,5.488,15.526,0l1.336-1.717c4.27-5.488,11.256-5.488,15.526,0l1.336,1.717c4.269,5.488,11.256,5.488,15.525,0l1.336-1.717c4.269-5.488,11.256-5.488,15.525,0l1.336,1.717c4.27,5.488,11.256,5.488,15.526,0l1.336-1.717c4.27-5.488,11.256-5.488,15.526,0l1.336,1.717c4.27,5.488,11.257,5.488,15.526,0l1.336-1.717c4.27-5.488,11.256-5.487,15.525,0l1.335,1.716c4.269,5.488,11.255,5.488,15.525,0l1.336-1.717c4.27-5.488,11.256-5.488,15.525,0l1.336,1.717c4.27,5.488,11.257,5.488,15.526,0l1.337-1.718c4.27-5.487,11.257-5.487,15.526,0l1.337,1.718c4.27,5.487,11.257,5.487,15.527,0l1.336-1.718c4.27-5.487,11.257-5.487,15.527,0l1.337,1.718c4.27,5.487,11.258,5.488,15.528,0l1.338-1.719c4.27-5.487,11.258-5.487,15.528,0l9.1,11.695" transform="translate(-0.785 -0.611)" fill="none" stroke="#03bf56" stroke-miterlimit="10" stroke-width="4"/>
                </g>
              </g>
            </g>
          </g>
        </g>
        <g transform="translate(462 -1666)">
          <g id="マスクグループ_255" data-name="マスクグループ 255" transform="translate(0.261 6.767)" clip-path="url(#clip-path-4)">
            <g id="マスクグループ_254" data-name="マスクグループ 254" transform="translate(101.843 1656.369)" clip-path="url(#clip-path-5)">
              <g id="グループ_456" data-name="グループ 456" transform="translate(-86.96 6.579)">
                <g id="グループ_455" data-name="グループ 455" transform="translate(0 0)" clip-path="url(#clip-path-6)">
                  <path id="パス_139" data-name="パス 139" d="M1.973,1.535l9.1,11.694c4.269,5.488,11.255,5.487,15.524,0l1.335-1.716c4.269-5.488,11.256-5.488,15.525,0l1.335,1.716c4.269,5.488,11.255,5.488,15.525,0l1.335-1.716c4.27-5.488,11.256-5.488,15.525,0l1.335,1.716c4.269,5.488,11.255,5.488,15.525,0l1.335-1.717c4.27-5.488,11.256-5.487,15.525,0l1.335,1.716c4.269,5.488,11.256,5.488,15.525,0l1.336-1.717c4.269-5.488,11.256-5.487,15.525,0l1.335,1.716c4.269,5.488,11.256,5.488,15.525,0l1.335-1.717c4.27-5.488,11.256-5.487,15.525,0l1.335,1.716c4.269,5.488,11.255,5.488,15.525,0l1.335-1.717c4.27-5.488,11.256-5.487,15.525,0l1.335,1.716c4.269,5.488,11.256,5.488,15.525,0l1.335-1.717c4.27-5.488,11.256-5.487,15.525,0l1.335,1.716c4.27,5.488,11.256,5.488,15.525,0l1.335-1.716c4.269-5.488,11.256-5.488,15.525,0l1.335,1.717c4.27,5.488,11.256,5.487,15.525,0l1.335-1.716c4.269-5.488,11.256-5.488,15.525,0l1.335,1.716c4.27,5.488,11.256,5.488,15.525,0l1.336-1.717c4.269-5.488,11.256-5.487,15.525,0l1.335,1.716c4.269,5.488,11.256,5.488,15.525,0l1.335-1.716c4.269-5.488,11.256-5.488,15.525,0l1.335,1.716c4.27,5.488,11.256,5.488,15.525,0l1.335-1.717c4.27-5.488,11.256-5.488,15.525,0l1.336,1.717c4.269,5.488,11.256,5.488,15.525,0l1.335-1.717c4.27-5.488,11.256-5.487,15.524,0l1.334,1.714c4.269,5.488,11.255,5.489,15.524,0l1.336-1.717c4.269-5.488,11.256-5.487,15.524,0l1.335,1.716c4.269,5.488,11.254,5.488,15.523,0L500,11.513c4.269-5.488,11.255-5.488,15.525,0l1.335,1.716c4.27,5.488,11.255,5.488,15.525,0l1.334-1.716c4.269-5.488,11.255-5.488,15.525,0l1.335,1.716c4.269,5.488,11.256,5.488,15.525,0l1.336-1.717c4.27-5.488,11.256-5.487,15.525,0l1.335,1.716c4.269,5.488,11.256,5.488,15.525,0l1.335-1.716c4.269-5.488,11.255-5.488,15.525,0l1.335,1.716c4.27,5.488,11.256,5.488,15.525,0l1.335-1.716c4.269-5.488,11.255-5.488,15.525,0l1.335,1.717c4.27,5.488,11.256,5.488,15.526,0l1.336-1.717c4.27-5.488,11.256-5.488,15.526,0l1.336,1.717c4.269,5.488,11.256,5.488,15.525,0l1.336-1.717c4.269-5.488,11.256-5.488,15.525,0l1.336,1.717c4.27,5.488,11.256,5.488,15.526,0l1.336-1.717c4.27-5.488,11.256-5.488,15.526,0l1.336,1.717c4.27,5.488,11.257,5.488,15.526,0l1.336-1.717c4.27-5.488,11.256-5.487,15.525,0l1.335,1.716c4.269,5.488,11.255,5.488,15.525,0l1.336-1.717c4.27-5.488,11.256-5.488,15.525,0l1.336,1.717c4.27,5.488,11.257,5.488,15.526,0l1.337-1.718c4.27-5.487,11.257-5.487,15.526,0l1.337,1.718c4.27,5.487,11.257,5.487,15.527,0l1.336-1.718c4.27-5.487,11.257-5.487,15.527,0l1.337,1.718c4.27,5.487,11.258,5.488,15.528,0l1.338-1.719c4.27-5.487,11.258-5.487,15.528,0l9.1,11.695" transform="translate(-0.785 -0.611)" fill="none" stroke="#03bf56" stroke-miterlimit="10" stroke-width="4"/>
                </g>
              </g>
            </g>
          </g>
        </g>
        <g transform="translate(530 -1666)">
          <g id="マスクグループ_257" data-name="マスクグループ 257" transform="translate(0.261 6.767)" clip-path="url(#clip-path-4)">
            <g id="マスクグループ_256" data-name="マスクグループ 256" transform="translate(101.843 1656.369)" clip-path="url(#clip-path-5)">
              <g id="グループ_458" data-name="グループ 458" transform="translate(-86.96 6.579)">
                <g id="グループ_457" data-name="グループ 457" transform="translate(0 0)" clip-path="url(#clip-path-6)">
                  <path id="パス_140" data-name="パス 140" d="M1.973,1.535l9.1,11.694c4.269,5.488,11.255,5.487,15.524,0l1.335-1.716c4.269-5.488,11.256-5.488,15.525,0l1.335,1.716c4.269,5.488,11.255,5.488,15.525,0l1.335-1.716c4.27-5.488,11.256-5.488,15.525,0l1.335,1.716c4.269,5.488,11.255,5.488,15.525,0l1.335-1.717c4.27-5.488,11.256-5.487,15.525,0l1.335,1.716c4.269,5.488,11.256,5.488,15.525,0l1.336-1.717c4.269-5.488,11.256-5.487,15.525,0l1.335,1.716c4.269,5.488,11.256,5.488,15.525,0l1.335-1.717c4.27-5.488,11.256-5.487,15.525,0l1.335,1.716c4.269,5.488,11.255,5.488,15.525,0l1.335-1.717c4.27-5.488,11.256-5.487,15.525,0l1.335,1.716c4.269,5.488,11.256,5.488,15.525,0l1.335-1.717c4.27-5.488,11.256-5.487,15.525,0l1.335,1.716c4.27,5.488,11.256,5.488,15.525,0l1.335-1.716c4.269-5.488,11.256-5.488,15.525,0l1.335,1.717c4.27,5.488,11.256,5.487,15.525,0l1.335-1.716c4.269-5.488,11.256-5.488,15.525,0l1.335,1.716c4.27,5.488,11.256,5.488,15.525,0l1.336-1.717c4.269-5.488,11.256-5.487,15.525,0l1.335,1.716c4.269,5.488,11.256,5.488,15.525,0l1.335-1.716c4.269-5.488,11.256-5.488,15.525,0l1.335,1.716c4.27,5.488,11.256,5.488,15.525,0l1.335-1.717c4.27-5.488,11.256-5.488,15.525,0l1.336,1.717c4.269,5.488,11.256,5.488,15.525,0l1.335-1.717c4.27-5.488,11.256-5.487,15.524,0l1.334,1.714c4.269,5.488,11.255,5.489,15.524,0l1.336-1.717c4.269-5.488,11.256-5.487,15.524,0l1.335,1.716c4.269,5.488,11.254,5.488,15.523,0L500,11.513c4.269-5.488,11.255-5.488,15.525,0l1.335,1.716c4.27,5.488,11.255,5.488,15.525,0l1.334-1.716c4.269-5.488,11.255-5.488,15.525,0l1.335,1.716c4.269,5.488,11.256,5.488,15.525,0l1.336-1.717c4.27-5.488,11.256-5.487,15.525,0l1.335,1.716c4.269,5.488,11.256,5.488,15.525,0l1.335-1.716c4.269-5.488,11.255-5.488,15.525,0l1.335,1.716c4.27,5.488,11.256,5.488,15.525,0l1.335-1.716c4.269-5.488,11.255-5.488,15.525,0l1.335,1.717c4.27,5.488,11.256,5.488,15.526,0l1.336-1.717c4.27-5.488,11.256-5.488,15.526,0l1.336,1.717c4.269,5.488,11.256,5.488,15.525,0l1.336-1.717c4.269-5.488,11.256-5.488,15.525,0l1.336,1.717c4.27,5.488,11.256,5.488,15.526,0l1.336-1.717c4.27-5.488,11.256-5.488,15.526,0l1.336,1.717c4.27,5.488,11.257,5.488,15.526,0l1.336-1.717c4.27-5.488,11.256-5.487,15.525,0l1.335,1.716c4.269,5.488,11.255,5.488,15.525,0l1.336-1.717c4.27-5.488,11.256-5.488,15.525,0l1.336,1.717c4.27,5.488,11.257,5.488,15.526,0l1.337-1.718c4.27-5.487,11.257-5.487,15.526,0l1.337,1.718c4.27,5.487,11.257,5.487,15.527,0l1.336-1.718c4.27-5.487,11.257-5.487,15.527,0l1.337,1.718c4.27,5.487,11.258,5.488,15.528,0l1.338-1.719c4.27-5.487,11.258-5.487,15.528,0l9.1,11.695" transform="translate(-0.785 -0.611)" fill="none" stroke="#03bf56" stroke-miterlimit="10" stroke-width="4"/>
                </g>
              </g>
            </g>
          </g>
        </g>
        <g transform="translate(598 -1666)">
          <g id="マスクグループ_259" data-name="マスクグループ 259" transform="translate(0.261 6.767)" clip-path="url(#clip-path-4)">
            <g id="マスクグループ_258" data-name="マスクグループ 258" transform="translate(101.843 1656.369)" clip-path="url(#clip-path-5)">
              <g id="グループ_460" data-name="グループ 460" transform="translate(-86.96 6.579)">
                <g id="グループ_459" data-name="グループ 459" transform="translate(0 0)" clip-path="url(#clip-path-6)">
                  <path id="パス_141" data-name="パス 141" d="M1.973,1.535l9.1,11.694c4.269,5.488,11.255,5.487,15.524,0l1.335-1.716c4.269-5.488,11.256-5.488,15.525,0l1.335,1.716c4.269,5.488,11.255,5.488,15.525,0l1.335-1.716c4.27-5.488,11.256-5.488,15.525,0l1.335,1.716c4.269,5.488,11.255,5.488,15.525,0l1.335-1.717c4.27-5.488,11.256-5.487,15.525,0l1.335,1.716c4.269,5.488,11.256,5.488,15.525,0l1.336-1.717c4.269-5.488,11.256-5.487,15.525,0l1.335,1.716c4.269,5.488,11.256,5.488,15.525,0l1.335-1.717c4.27-5.488,11.256-5.487,15.525,0l1.335,1.716c4.269,5.488,11.255,5.488,15.525,0l1.335-1.717c4.27-5.488,11.256-5.487,15.525,0l1.335,1.716c4.269,5.488,11.256,5.488,15.525,0l1.335-1.717c4.27-5.488,11.256-5.487,15.525,0l1.335,1.716c4.27,5.488,11.256,5.488,15.525,0l1.335-1.716c4.269-5.488,11.256-5.488,15.525,0l1.335,1.717c4.27,5.488,11.256,5.487,15.525,0l1.335-1.716c4.269-5.488,11.256-5.488,15.525,0l1.335,1.716c4.27,5.488,11.256,5.488,15.525,0l1.336-1.717c4.269-5.488,11.256-5.487,15.525,0l1.335,1.716c4.269,5.488,11.256,5.488,15.525,0l1.335-1.716c4.269-5.488,11.256-5.488,15.525,0l1.335,1.716c4.27,5.488,11.256,5.488,15.525,0l1.335-1.717c4.27-5.488,11.256-5.488,15.525,0l1.336,1.717c4.269,5.488,11.256,5.488,15.525,0l1.335-1.717c4.27-5.488,11.256-5.487,15.524,0l1.334,1.714c4.269,5.488,11.255,5.489,15.524,0l1.336-1.717c4.269-5.488,11.256-5.487,15.524,0l1.335,1.716c4.269,5.488,11.254,5.488,15.523,0L500,11.513c4.269-5.488,11.255-5.488,15.525,0l1.335,1.716c4.27,5.488,11.255,5.488,15.525,0l1.334-1.716c4.269-5.488,11.255-5.488,15.525,0l1.335,1.716c4.269,5.488,11.256,5.488,15.525,0l1.336-1.717c4.27-5.488,11.256-5.487,15.525,0l1.335,1.716c4.269,5.488,11.256,5.488,15.525,0l1.335-1.716c4.269-5.488,11.255-5.488,15.525,0l1.335,1.716c4.27,5.488,11.256,5.488,15.525,0l1.335-1.716c4.269-5.488,11.255-5.488,15.525,0l1.335,1.717c4.27,5.488,11.256,5.488,15.526,0l1.336-1.717c4.27-5.488,11.256-5.488,15.526,0l1.336,1.717c4.269,5.488,11.256,5.488,15.525,0l1.336-1.717c4.269-5.488,11.256-5.488,15.525,0l1.336,1.717c4.27,5.488,11.256,5.488,15.526,0l1.336-1.717c4.27-5.488,11.256-5.488,15.526,0l1.336,1.717c4.27,5.488,11.257,5.488,15.526,0l1.336-1.717c4.27-5.488,11.256-5.487,15.525,0l1.335,1.716c4.269,5.488,11.255,5.488,15.525,0l1.336-1.717c4.27-5.488,11.256-5.488,15.525,0l1.336,1.717c4.27,5.488,11.257,5.488,15.526,0l1.337-1.718c4.27-5.487,11.257-5.487,15.526,0l1.337,1.718c4.27,5.487,11.257,5.487,15.527,0l1.336-1.718c4.27-5.487,11.257-5.487,15.527,0l1.337,1.718c4.27,5.487,11.258,5.488,15.528,0l1.338-1.719c4.27-5.487,11.258-5.487,15.528,0l9.1,11.695" transform="translate(-0.785 -0.611)" fill="none" stroke="#03bf56" stroke-miterlimit="10" stroke-width="4"/>
                </g>
              </g>
            </g>
          </g>
        </g>
        <g transform="translate(666 -1666)">
          <g id="マスクグループ_261" data-name="マスクグループ 261" transform="translate(0.261 6.767)" clip-path="url(#clip-path-4)">
            <g id="マスクグループ_260" data-name="マスクグループ 260" transform="translate(101.843 1656.369)" clip-path="url(#clip-path-5)">
              <g id="グループ_462" data-name="グループ 462" transform="translate(-86.96 6.579)">
                <g id="グループ_461" data-name="グループ 461" transform="translate(0 0)" clip-path="url(#clip-path-6)">
                  <path id="パス_142" data-name="パス 142" d="M1.973,1.535l9.1,11.694c4.269,5.488,11.255,5.487,15.524,0l1.335-1.716c4.269-5.488,11.256-5.488,15.525,0l1.335,1.716c4.269,5.488,11.255,5.488,15.525,0l1.335-1.716c4.27-5.488,11.256-5.488,15.525,0l1.335,1.716c4.269,5.488,11.255,5.488,15.525,0l1.335-1.717c4.27-5.488,11.256-5.487,15.525,0l1.335,1.716c4.269,5.488,11.256,5.488,15.525,0l1.336-1.717c4.269-5.488,11.256-5.487,15.525,0l1.335,1.716c4.269,5.488,11.256,5.488,15.525,0l1.335-1.717c4.27-5.488,11.256-5.487,15.525,0l1.335,1.716c4.269,5.488,11.255,5.488,15.525,0l1.335-1.717c4.27-5.488,11.256-5.487,15.525,0l1.335,1.716c4.269,5.488,11.256,5.488,15.525,0l1.335-1.717c4.27-5.488,11.256-5.487,15.525,0l1.335,1.716c4.27,5.488,11.256,5.488,15.525,0l1.335-1.716c4.269-5.488,11.256-5.488,15.525,0l1.335,1.717c4.27,5.488,11.256,5.487,15.525,0l1.335-1.716c4.269-5.488,11.256-5.488,15.525,0l1.335,1.716c4.27,5.488,11.256,5.488,15.525,0l1.336-1.717c4.269-5.488,11.256-5.487,15.525,0l1.335,1.716c4.269,5.488,11.256,5.488,15.525,0l1.335-1.716c4.269-5.488,11.256-5.488,15.525,0l1.335,1.716c4.27,5.488,11.256,5.488,15.525,0l1.335-1.717c4.27-5.488,11.256-5.488,15.525,0l1.336,1.717c4.269,5.488,11.256,5.488,15.525,0l1.335-1.717c4.27-5.488,11.256-5.487,15.524,0l1.334,1.714c4.269,5.488,11.255,5.489,15.524,0l1.336-1.717c4.269-5.488,11.256-5.487,15.524,0l1.335,1.716c4.269,5.488,11.254,5.488,15.523,0L500,11.513c4.269-5.488,11.255-5.488,15.525,0l1.335,1.716c4.27,5.488,11.255,5.488,15.525,0l1.334-1.716c4.269-5.488,11.255-5.488,15.525,0l1.335,1.716c4.269,5.488,11.256,5.488,15.525,0l1.336-1.717c4.27-5.488,11.256-5.487,15.525,0l1.335,1.716c4.269,5.488,11.256,5.488,15.525,0l1.335-1.716c4.269-5.488,11.255-5.488,15.525,0l1.335,1.716c4.27,5.488,11.256,5.488,15.525,0l1.335-1.716c4.269-5.488,11.255-5.488,15.525,0l1.335,1.717c4.27,5.488,11.256,5.488,15.526,0l1.336-1.717c4.27-5.488,11.256-5.488,15.526,0l1.336,1.717c4.269,5.488,11.256,5.488,15.525,0l1.336-1.717c4.269-5.488,11.256-5.488,15.525,0l1.336,1.717c4.27,5.488,11.256,5.488,15.526,0l1.336-1.717c4.27-5.488,11.256-5.488,15.526,0l1.336,1.717c4.27,5.488,11.257,5.488,15.526,0l1.336-1.717c4.27-5.488,11.256-5.487,15.525,0l1.335,1.716c4.269,5.488,11.255,5.488,15.525,0l1.336-1.717c4.27-5.488,11.256-5.488,15.525,0l1.336,1.717c4.27,5.488,11.257,5.488,15.526,0l1.337-1.718c4.27-5.487,11.257-5.487,15.526,0l1.337,1.718c4.27,5.487,11.257,5.487,15.527,0l1.336-1.718c4.27-5.487,11.257-5.487,15.527,0l1.337,1.718c4.27,5.487,11.258,5.488,15.528,0l1.338-1.719c4.27-5.487,11.258-5.487,15.528,0l9.1,11.695" transform="translate(-0.785 -0.611)" fill="none" stroke="#03bf56" stroke-miterlimit="10" stroke-width="4"/>
                </g>
              </g>
            </g>
          </g>
        </g>
        <g transform="translate(734 -1666)">
          <g id="マスクグループ_263" data-name="マスクグループ 263" transform="translate(0.261 6.767)" clip-path="url(#clip-path-4)">
            <g id="マスクグループ_262" data-name="マスクグループ 262" transform="translate(101.843 1656.369)" clip-path="url(#clip-path-5)">
              <g id="グループ_464" data-name="グループ 464" transform="translate(-86.96 6.579)">
                <g id="グループ_463" data-name="グループ 463" transform="translate(0 0)" clip-path="url(#clip-path-6)">
                  <path id="パス_143" data-name="パス 143" d="M1.973,1.535l9.1,11.694c4.269,5.488,11.255,5.487,15.524,0l1.335-1.716c4.269-5.488,11.256-5.488,15.525,0l1.335,1.716c4.269,5.488,11.255,5.488,15.525,0l1.335-1.716c4.27-5.488,11.256-5.488,15.525,0l1.335,1.716c4.269,5.488,11.255,5.488,15.525,0l1.335-1.717c4.27-5.488,11.256-5.487,15.525,0l1.335,1.716c4.269,5.488,11.256,5.488,15.525,0l1.336-1.717c4.269-5.488,11.256-5.487,15.525,0l1.335,1.716c4.269,5.488,11.256,5.488,15.525,0l1.335-1.717c4.27-5.488,11.256-5.487,15.525,0l1.335,1.716c4.269,5.488,11.255,5.488,15.525,0l1.335-1.717c4.27-5.488,11.256-5.487,15.525,0l1.335,1.716c4.269,5.488,11.256,5.488,15.525,0l1.335-1.717c4.27-5.488,11.256-5.487,15.525,0l1.335,1.716c4.27,5.488,11.256,5.488,15.525,0l1.335-1.716c4.269-5.488,11.256-5.488,15.525,0l1.335,1.717c4.27,5.488,11.256,5.487,15.525,0l1.335-1.716c4.269-5.488,11.256-5.488,15.525,0l1.335,1.716c4.27,5.488,11.256,5.488,15.525,0l1.336-1.717c4.269-5.488,11.256-5.487,15.525,0l1.335,1.716c4.269,5.488,11.256,5.488,15.525,0l1.335-1.716c4.269-5.488,11.256-5.488,15.525,0l1.335,1.716c4.27,5.488,11.256,5.488,15.525,0l1.335-1.717c4.27-5.488,11.256-5.488,15.525,0l1.336,1.717c4.269,5.488,11.256,5.488,15.525,0l1.335-1.717c4.27-5.488,11.256-5.487,15.524,0l1.334,1.714c4.269,5.488,11.255,5.489,15.524,0l1.336-1.717c4.269-5.488,11.256-5.487,15.524,0l1.335,1.716c4.269,5.488,11.254,5.488,15.523,0L500,11.513c4.269-5.488,11.255-5.488,15.525,0l1.335,1.716c4.27,5.488,11.255,5.488,15.525,0l1.334-1.716c4.269-5.488,11.255-5.488,15.525,0l1.335,1.716c4.269,5.488,11.256,5.488,15.525,0l1.336-1.717c4.27-5.488,11.256-5.487,15.525,0l1.335,1.716c4.269,5.488,11.256,5.488,15.525,0l1.335-1.716c4.269-5.488,11.255-5.488,15.525,0l1.335,1.716c4.27,5.488,11.256,5.488,15.525,0l1.335-1.716c4.269-5.488,11.255-5.488,15.525,0l1.335,1.717c4.27,5.488,11.256,5.488,15.526,0l1.336-1.717c4.27-5.488,11.256-5.488,15.526,0l1.336,1.717c4.269,5.488,11.256,5.488,15.525,0l1.336-1.717c4.269-5.488,11.256-5.488,15.525,0l1.336,1.717c4.27,5.488,11.256,5.488,15.526,0l1.336-1.717c4.27-5.488,11.256-5.488,15.526,0l1.336,1.717c4.27,5.488,11.257,5.488,15.526,0l1.336-1.717c4.27-5.488,11.256-5.487,15.525,0l1.335,1.716c4.269,5.488,11.255,5.488,15.525,0l1.336-1.717c4.27-5.488,11.256-5.488,15.525,0l1.336,1.717c4.27,5.488,11.257,5.488,15.526,0l1.337-1.718c4.27-5.487,11.257-5.487,15.526,0l1.337,1.718c4.27,5.487,11.257,5.487,15.527,0l1.336-1.718c4.27-5.487,11.257-5.487,15.527,0l1.337,1.718c4.27,5.487,11.258,5.488,15.528,0l1.338-1.719c4.27-5.487,11.258-5.487,15.528,0l9.1,11.695" transform="translate(-0.785 -0.611)" fill="none" stroke="#03bf56" stroke-miterlimit="10" stroke-width="4"/>
                </g>
              </g>
            </g>
          </g>
        </g>
        <g transform="translate(802 -1666)">
          <g id="マスクグループ_265" data-name="マスクグループ 265" transform="translate(0.261 6.767)" clip-path="url(#clip-path-4)">
            <g id="マスクグループ_264" data-name="マスクグループ 264" transform="translate(101.843 1656.369)" clip-path="url(#clip-path-5)">
              <g id="グループ_466" data-name="グループ 466" transform="translate(-86.96 6.579)">
                <g id="グループ_465" data-name="グループ 465" transform="translate(0 0)" clip-path="url(#clip-path-6)">
                  <path id="パス_144" data-name="パス 144" d="M1.973,1.535l9.1,11.694c4.269,5.488,11.255,5.487,15.524,0l1.335-1.716c4.269-5.488,11.256-5.488,15.525,0l1.335,1.716c4.269,5.488,11.255,5.488,15.525,0l1.335-1.716c4.27-5.488,11.256-5.488,15.525,0l1.335,1.716c4.269,5.488,11.255,5.488,15.525,0l1.335-1.717c4.27-5.488,11.256-5.487,15.525,0l1.335,1.716c4.269,5.488,11.256,5.488,15.525,0l1.336-1.717c4.269-5.488,11.256-5.487,15.525,0l1.335,1.716c4.269,5.488,11.256,5.488,15.525,0l1.335-1.717c4.27-5.488,11.256-5.487,15.525,0l1.335,1.716c4.269,5.488,11.255,5.488,15.525,0l1.335-1.717c4.27-5.488,11.256-5.487,15.525,0l1.335,1.716c4.269,5.488,11.256,5.488,15.525,0l1.335-1.717c4.27-5.488,11.256-5.487,15.525,0l1.335,1.716c4.27,5.488,11.256,5.488,15.525,0l1.335-1.716c4.269-5.488,11.256-5.488,15.525,0l1.335,1.717c4.27,5.488,11.256,5.487,15.525,0l1.335-1.716c4.269-5.488,11.256-5.488,15.525,0l1.335,1.716c4.27,5.488,11.256,5.488,15.525,0l1.336-1.717c4.269-5.488,11.256-5.487,15.525,0l1.335,1.716c4.269,5.488,11.256,5.488,15.525,0l1.335-1.716c4.269-5.488,11.256-5.488,15.525,0l1.335,1.716c4.27,5.488,11.256,5.488,15.525,0l1.335-1.717c4.27-5.488,11.256-5.488,15.525,0l1.336,1.717c4.269,5.488,11.256,5.488,15.525,0l1.335-1.717c4.27-5.488,11.256-5.487,15.524,0l1.334,1.714c4.269,5.488,11.255,5.489,15.524,0l1.336-1.717c4.269-5.488,11.256-5.487,15.524,0l1.335,1.716c4.269,5.488,11.254,5.488,15.523,0L500,11.513c4.269-5.488,11.255-5.488,15.525,0l1.335,1.716c4.27,5.488,11.255,5.488,15.525,0l1.334-1.716c4.269-5.488,11.255-5.488,15.525,0l1.335,1.716c4.269,5.488,11.256,5.488,15.525,0l1.336-1.717c4.27-5.488,11.256-5.487,15.525,0l1.335,1.716c4.269,5.488,11.256,5.488,15.525,0l1.335-1.716c4.269-5.488,11.255-5.488,15.525,0l1.335,1.716c4.27,5.488,11.256,5.488,15.525,0l1.335-1.716c4.269-5.488,11.255-5.488,15.525,0l1.335,1.717c4.27,5.488,11.256,5.488,15.526,0l1.336-1.717c4.27-5.488,11.256-5.488,15.526,0l1.336,1.717c4.269,5.488,11.256,5.488,15.525,0l1.336-1.717c4.269-5.488,11.256-5.488,15.525,0l1.336,1.717c4.27,5.488,11.256,5.488,15.526,0l1.336-1.717c4.27-5.488,11.256-5.488,15.526,0l1.336,1.717c4.27,5.488,11.257,5.488,15.526,0l1.336-1.717c4.27-5.488,11.256-5.487,15.525,0l1.335,1.716c4.269,5.488,11.255,5.488,15.525,0l1.336-1.717c4.27-5.488,11.256-5.488,15.525,0l1.336,1.717c4.27,5.488,11.257,5.488,15.526,0l1.337-1.718c4.27-5.487,11.257-5.487,15.526,0l1.337,1.718c4.27,5.487,11.257,5.487,15.527,0l1.336-1.718c4.27-5.487,11.257-5.487,15.527,0l1.337,1.718c4.27,5.487,11.258,5.488,15.528,0l1.338-1.719c4.27-5.487,11.258-5.487,15.528,0l9.1,11.695" transform="translate(-0.785 -0.611)" fill="none" stroke="#03bf56" stroke-miterlimit="10" stroke-width="4"/>
                </g>
              </g>
            </g>
          </g>
        </g>
        <g transform="translate(870 -1666)">
          <g id="マスクグループ_267" data-name="マスクグループ 267" transform="translate(0.261 6.767)" clip-path="url(#clip-path-4)">
            <g id="マスクグループ_266" data-name="マスクグループ 266" transform="translate(101.843 1656.369)" clip-path="url(#clip-path-5)">
              <g id="グループ_468" data-name="グループ 468" transform="translate(-86.96 6.579)">
                <g id="グループ_467" data-name="グループ 467" transform="translate(0 0)" clip-path="url(#clip-path-6)">
                  <path id="パス_145" data-name="パス 145" d="M1.973,1.535l9.1,11.694c4.269,5.488,11.255,5.487,15.524,0l1.335-1.716c4.269-5.488,11.256-5.488,15.525,0l1.335,1.716c4.269,5.488,11.255,5.488,15.525,0l1.335-1.716c4.27-5.488,11.256-5.488,15.525,0l1.335,1.716c4.269,5.488,11.255,5.488,15.525,0l1.335-1.717c4.27-5.488,11.256-5.487,15.525,0l1.335,1.716c4.269,5.488,11.256,5.488,15.525,0l1.336-1.717c4.269-5.488,11.256-5.487,15.525,0l1.335,1.716c4.269,5.488,11.256,5.488,15.525,0l1.335-1.717c4.27-5.488,11.256-5.487,15.525,0l1.335,1.716c4.269,5.488,11.255,5.488,15.525,0l1.335-1.717c4.27-5.488,11.256-5.487,15.525,0l1.335,1.716c4.269,5.488,11.256,5.488,15.525,0l1.335-1.717c4.27-5.488,11.256-5.487,15.525,0l1.335,1.716c4.27,5.488,11.256,5.488,15.525,0l1.335-1.716c4.269-5.488,11.256-5.488,15.525,0l1.335,1.717c4.27,5.488,11.256,5.487,15.525,0l1.335-1.716c4.269-5.488,11.256-5.488,15.525,0l1.335,1.716c4.27,5.488,11.256,5.488,15.525,0l1.336-1.717c4.269-5.488,11.256-5.487,15.525,0l1.335,1.716c4.269,5.488,11.256,5.488,15.525,0l1.335-1.716c4.269-5.488,11.256-5.488,15.525,0l1.335,1.716c4.27,5.488,11.256,5.488,15.525,0l1.335-1.717c4.27-5.488,11.256-5.488,15.525,0l1.336,1.717c4.269,5.488,11.256,5.488,15.525,0l1.335-1.717c4.27-5.488,11.256-5.487,15.524,0l1.334,1.714c4.269,5.488,11.255,5.489,15.524,0l1.336-1.717c4.269-5.488,11.256-5.487,15.524,0l1.335,1.716c4.269,5.488,11.254,5.488,15.523,0L500,11.513c4.269-5.488,11.255-5.488,15.525,0l1.335,1.716c4.27,5.488,11.255,5.488,15.525,0l1.334-1.716c4.269-5.488,11.255-5.488,15.525,0l1.335,1.716c4.269,5.488,11.256,5.488,15.525,0l1.336-1.717c4.27-5.488,11.256-5.487,15.525,0l1.335,1.716c4.269,5.488,11.256,5.488,15.525,0l1.335-1.716c4.269-5.488,11.255-5.488,15.525,0l1.335,1.716c4.27,5.488,11.256,5.488,15.525,0l1.335-1.716c4.269-5.488,11.255-5.488,15.525,0l1.335,1.717c4.27,5.488,11.256,5.488,15.526,0l1.336-1.717c4.27-5.488,11.256-5.488,15.526,0l1.336,1.717c4.269,5.488,11.256,5.488,15.525,0l1.336-1.717c4.269-5.488,11.256-5.488,15.525,0l1.336,1.717c4.27,5.488,11.256,5.488,15.526,0l1.336-1.717c4.27-5.488,11.256-5.488,15.526,0l1.336,1.717c4.27,5.488,11.257,5.488,15.526,0l1.336-1.717c4.27-5.488,11.256-5.487,15.525,0l1.335,1.716c4.269,5.488,11.255,5.488,15.525,0l1.336-1.717c4.27-5.488,11.256-5.488,15.525,0l1.336,1.717c4.27,5.488,11.257,5.488,15.526,0l1.337-1.718c4.27-5.487,11.257-5.487,15.526,0l1.337,1.718c4.27,5.487,11.257,5.487,15.527,0l1.336-1.718c4.27-5.487,11.257-5.487,15.527,0l1.337,1.718c4.27,5.487,11.258,5.488,15.528,0l1.338-1.719c4.27-5.487,11.258-5.487,15.528,0l9.1,11.695" transform="translate(-0.785 -0.611)" fill="none" stroke="#03bf56" stroke-miterlimit="10" stroke-width="4"/>
                </g>
              </g>
            </g>
          </g>
        </g>
        <g transform="translate(938 -1666)">
          <g id="マスクグループ_269" data-name="マスクグループ 269" transform="translate(0.261 6.767)" clip-path="url(#clip-path-4)">
            <g id="マスクグループ_268" data-name="マスクグループ 268" transform="translate(101.843 1656.369)" clip-path="url(#clip-path-5)">
              <g id="グループ_470" data-name="グループ 470" transform="translate(-86.96 6.579)">
                <g id="グループ_469" data-name="グループ 469" transform="translate(0 0)" clip-path="url(#clip-path-6)">
                  <path id="パス_146" data-name="パス 146" d="M1.973,1.535l9.1,11.694c4.269,5.488,11.255,5.487,15.524,0l1.335-1.716c4.269-5.488,11.256-5.488,15.525,0l1.335,1.716c4.269,5.488,11.255,5.488,15.525,0l1.335-1.716c4.27-5.488,11.256-5.488,15.525,0l1.335,1.716c4.269,5.488,11.255,5.488,15.525,0l1.335-1.717c4.27-5.488,11.256-5.487,15.525,0l1.335,1.716c4.269,5.488,11.256,5.488,15.525,0l1.336-1.717c4.269-5.488,11.256-5.487,15.525,0l1.335,1.716c4.269,5.488,11.256,5.488,15.525,0l1.335-1.717c4.27-5.488,11.256-5.487,15.525,0l1.335,1.716c4.269,5.488,11.255,5.488,15.525,0l1.335-1.717c4.27-5.488,11.256-5.487,15.525,0l1.335,1.716c4.269,5.488,11.256,5.488,15.525,0l1.335-1.717c4.27-5.488,11.256-5.487,15.525,0l1.335,1.716c4.27,5.488,11.256,5.488,15.525,0l1.335-1.716c4.269-5.488,11.256-5.488,15.525,0l1.335,1.717c4.27,5.488,11.256,5.487,15.525,0l1.335-1.716c4.269-5.488,11.256-5.488,15.525,0l1.335,1.716c4.27,5.488,11.256,5.488,15.525,0l1.336-1.717c4.269-5.488,11.256-5.487,15.525,0l1.335,1.716c4.269,5.488,11.256,5.488,15.525,0l1.335-1.716c4.269-5.488,11.256-5.488,15.525,0l1.335,1.716c4.27,5.488,11.256,5.488,15.525,0l1.335-1.717c4.27-5.488,11.256-5.488,15.525,0l1.336,1.717c4.269,5.488,11.256,5.488,15.525,0l1.335-1.717c4.27-5.488,11.256-5.487,15.524,0l1.334,1.714c4.269,5.488,11.255,5.489,15.524,0l1.336-1.717c4.269-5.488,11.256-5.487,15.524,0l1.335,1.716c4.269,5.488,11.254,5.488,15.523,0L500,11.513c4.269-5.488,11.255-5.488,15.525,0l1.335,1.716c4.27,5.488,11.255,5.488,15.525,0l1.334-1.716c4.269-5.488,11.255-5.488,15.525,0l1.335,1.716c4.269,5.488,11.256,5.488,15.525,0l1.336-1.717c4.27-5.488,11.256-5.487,15.525,0l1.335,1.716c4.269,5.488,11.256,5.488,15.525,0l1.335-1.716c4.269-5.488,11.255-5.488,15.525,0l1.335,1.716c4.27,5.488,11.256,5.488,15.525,0l1.335-1.716c4.269-5.488,11.255-5.488,15.525,0l1.335,1.717c4.27,5.488,11.256,5.488,15.526,0l1.336-1.717c4.27-5.488,11.256-5.488,15.526,0l1.336,1.717c4.269,5.488,11.256,5.488,15.525,0l1.336-1.717c4.269-5.488,11.256-5.488,15.525,0l1.336,1.717c4.27,5.488,11.256,5.488,15.526,0l1.336-1.717c4.27-5.488,11.256-5.488,15.526,0l1.336,1.717c4.27,5.488,11.257,5.488,15.526,0l1.336-1.717c4.27-5.488,11.256-5.487,15.525,0l1.335,1.716c4.269,5.488,11.255,5.488,15.525,0l1.336-1.717c4.27-5.488,11.256-5.488,15.525,0l1.336,1.717c4.27,5.488,11.257,5.488,15.526,0l1.337-1.718c4.27-5.487,11.257-5.487,15.526,0l1.337,1.718c4.27,5.487,11.257,5.487,15.527,0l1.336-1.718c4.27-5.487,11.257-5.487,15.527,0l1.337,1.718c4.27,5.487,11.258,5.488,15.528,0l1.338-1.719c4.27-5.487,11.258-5.487,15.528,0l9.1,11.695" transform="translate(-0.785 -0.611)" fill="none" stroke="#03bf56" stroke-miterlimit="10" stroke-width="4"/>
                </g>
              </g>
            </g>
          </g>
        </g>
        <g transform="translate(1006 -1666)">
          <g id="マスクグループ_271" data-name="マスクグループ 271" transform="translate(0.261 6.767)" clip-path="url(#clip-path-4)">
            <g id="マスクグループ_270" data-name="マスクグループ 270" transform="translate(101.843 1656.369)" clip-path="url(#clip-path-5)">
              <g id="グループ_472" data-name="グループ 472" transform="translate(-86.96 6.579)">
                <g id="グループ_471" data-name="グループ 471" transform="translate(0 0)" clip-path="url(#clip-path-6)">
                  <path id="パス_147" data-name="パス 147" d="M1.973,1.535l9.1,11.694c4.269,5.488,11.255,5.487,15.524,0l1.335-1.716c4.269-5.488,11.256-5.488,15.525,0l1.335,1.716c4.269,5.488,11.255,5.488,15.525,0l1.335-1.716c4.27-5.488,11.256-5.488,15.525,0l1.335,1.716c4.269,5.488,11.255,5.488,15.525,0l1.335-1.717c4.27-5.488,11.256-5.487,15.525,0l1.335,1.716c4.269,5.488,11.256,5.488,15.525,0l1.336-1.717c4.269-5.488,11.256-5.487,15.525,0l1.335,1.716c4.269,5.488,11.256,5.488,15.525,0l1.335-1.717c4.27-5.488,11.256-5.487,15.525,0l1.335,1.716c4.269,5.488,11.255,5.488,15.525,0l1.335-1.717c4.27-5.488,11.256-5.487,15.525,0l1.335,1.716c4.269,5.488,11.256,5.488,15.525,0l1.335-1.717c4.27-5.488,11.256-5.487,15.525,0l1.335,1.716c4.27,5.488,11.256,5.488,15.525,0l1.335-1.716c4.269-5.488,11.256-5.488,15.525,0l1.335,1.717c4.27,5.488,11.256,5.487,15.525,0l1.335-1.716c4.269-5.488,11.256-5.488,15.525,0l1.335,1.716c4.27,5.488,11.256,5.488,15.525,0l1.336-1.717c4.269-5.488,11.256-5.487,15.525,0l1.335,1.716c4.269,5.488,11.256,5.488,15.525,0l1.335-1.716c4.269-5.488,11.256-5.488,15.525,0l1.335,1.716c4.27,5.488,11.256,5.488,15.525,0l1.335-1.717c4.27-5.488,11.256-5.488,15.525,0l1.336,1.717c4.269,5.488,11.256,5.488,15.525,0l1.335-1.717c4.27-5.488,11.256-5.487,15.524,0l1.334,1.714c4.269,5.488,11.255,5.489,15.524,0l1.336-1.717c4.269-5.488,11.256-5.487,15.524,0l1.335,1.716c4.269,5.488,11.254,5.488,15.523,0L500,11.513c4.269-5.488,11.255-5.488,15.525,0l1.335,1.716c4.27,5.488,11.255,5.488,15.525,0l1.334-1.716c4.269-5.488,11.255-5.488,15.525,0l1.335,1.716c4.269,5.488,11.256,5.488,15.525,0l1.336-1.717c4.27-5.488,11.256-5.487,15.525,0l1.335,1.716c4.269,5.488,11.256,5.488,15.525,0l1.335-1.716c4.269-5.488,11.255-5.488,15.525,0l1.335,1.716c4.27,5.488,11.256,5.488,15.525,0l1.335-1.716c4.269-5.488,11.255-5.488,15.525,0l1.335,1.717c4.27,5.488,11.256,5.488,15.526,0l1.336-1.717c4.27-5.488,11.256-5.488,15.526,0l1.336,1.717c4.269,5.488,11.256,5.488,15.525,0l1.336-1.717c4.269-5.488,11.256-5.488,15.525,0l1.336,1.717c4.27,5.488,11.256,5.488,15.526,0l1.336-1.717c4.27-5.488,11.256-5.488,15.526,0l1.336,1.717c4.27,5.488,11.257,5.488,15.526,0l1.336-1.717c4.27-5.488,11.256-5.487,15.525,0l1.335,1.716c4.269,5.488,11.255,5.488,15.525,0l1.336-1.717c4.27-5.488,11.256-5.488,15.525,0l1.336,1.717c4.27,5.488,11.257,5.488,15.526,0l1.337-1.718c4.27-5.487,11.257-5.487,15.526,0l1.337,1.718c4.27,5.487,11.257,5.487,15.527,0l1.336-1.718c4.27-5.487,11.257-5.487,15.527,0l1.337,1.718c4.27,5.487,11.258,5.488,15.528,0l1.338-1.719c4.27-5.487,11.258-5.487,15.528,0l9.1,11.695" transform="translate(-0.785 -0.611)" fill="none" stroke="#03bf56" stroke-miterlimit="10" stroke-width="4"/>
                </g>
              </g>
            </g>
          </g>
        </g>
        <g transform="translate(1074 -1666)">
          <g id="マスクグループ_273" data-name="マスクグループ 273" transform="translate(0.261 6.767)" clip-path="url(#clip-path-4)">
            <g id="マスクグループ_272" data-name="マスクグループ 272" transform="translate(101.843 1656.369)" clip-path="url(#clip-path-5)">
              <g id="グループ_474" data-name="グループ 474" transform="translate(-86.96 6.579)">
                <g id="グループ_473" data-name="グループ 473" transform="translate(0 0)" clip-path="url(#clip-path-6)">
                  <path id="パス_148" data-name="パス 148" d="M1.973,1.535l9.1,11.694c4.269,5.488,11.255,5.487,15.524,0l1.335-1.716c4.269-5.488,11.256-5.488,15.525,0l1.335,1.716c4.269,5.488,11.255,5.488,15.525,0l1.335-1.716c4.27-5.488,11.256-5.488,15.525,0l1.335,1.716c4.269,5.488,11.255,5.488,15.525,0l1.335-1.717c4.27-5.488,11.256-5.487,15.525,0l1.335,1.716c4.269,5.488,11.256,5.488,15.525,0l1.336-1.717c4.269-5.488,11.256-5.487,15.525,0l1.335,1.716c4.269,5.488,11.256,5.488,15.525,0l1.335-1.717c4.27-5.488,11.256-5.487,15.525,0l1.335,1.716c4.269,5.488,11.255,5.488,15.525,0l1.335-1.717c4.27-5.488,11.256-5.487,15.525,0l1.335,1.716c4.269,5.488,11.256,5.488,15.525,0l1.335-1.717c4.27-5.488,11.256-5.487,15.525,0l1.335,1.716c4.27,5.488,11.256,5.488,15.525,0l1.335-1.716c4.269-5.488,11.256-5.488,15.525,0l1.335,1.717c4.27,5.488,11.256,5.487,15.525,0l1.335-1.716c4.269-5.488,11.256-5.488,15.525,0l1.335,1.716c4.27,5.488,11.256,5.488,15.525,0l1.336-1.717c4.269-5.488,11.256-5.487,15.525,0l1.335,1.716c4.269,5.488,11.256,5.488,15.525,0l1.335-1.716c4.269-5.488,11.256-5.488,15.525,0l1.335,1.716c4.27,5.488,11.256,5.488,15.525,0l1.335-1.717c4.27-5.488,11.256-5.488,15.525,0l1.336,1.717c4.269,5.488,11.256,5.488,15.525,0l1.335-1.717c4.27-5.488,11.256-5.487,15.524,0l1.334,1.714c4.269,5.488,11.255,5.489,15.524,0l1.336-1.717c4.269-5.488,11.256-5.487,15.524,0l1.335,1.716c4.269,5.488,11.254,5.488,15.523,0L500,11.513c4.269-5.488,11.255-5.488,15.525,0l1.335,1.716c4.27,5.488,11.255,5.488,15.525,0l1.334-1.716c4.269-5.488,11.255-5.488,15.525,0l1.335,1.716c4.269,5.488,11.256,5.488,15.525,0l1.336-1.717c4.27-5.488,11.256-5.487,15.525,0l1.335,1.716c4.269,5.488,11.256,5.488,15.525,0l1.335-1.716c4.269-5.488,11.255-5.488,15.525,0l1.335,1.716c4.27,5.488,11.256,5.488,15.525,0l1.335-1.716c4.269-5.488,11.255-5.488,15.525,0l1.335,1.717c4.27,5.488,11.256,5.488,15.526,0l1.336-1.717c4.27-5.488,11.256-5.488,15.526,0l1.336,1.717c4.269,5.488,11.256,5.488,15.525,0l1.336-1.717c4.269-5.488,11.256-5.488,15.525,0l1.336,1.717c4.27,5.488,11.256,5.488,15.526,0l1.336-1.717c4.27-5.488,11.256-5.488,15.526,0l1.336,1.717c4.27,5.488,11.257,5.488,15.526,0l1.336-1.717c4.27-5.488,11.256-5.487,15.525,0l1.335,1.716c4.269,5.488,11.255,5.488,15.525,0l1.336-1.717c4.27-5.488,11.256-5.488,15.525,0l1.336,1.717c4.27,5.488,11.257,5.488,15.526,0l1.337-1.718c4.27-5.487,11.257-5.487,15.526,0l1.337,1.718c4.27,5.487,11.257,5.487,15.527,0l1.336-1.718c4.27-5.487,11.257-5.487,15.527,0l1.337,1.718c4.27,5.487,11.258,5.488,15.528,0l1.338-1.719c4.27-5.487,11.258-5.487,15.528,0l9.1,11.695" transform="translate(-0.785 -0.611)" fill="none" stroke="#03bf56" stroke-miterlimit="10" stroke-width="4"/>
                </g>
              </g>
            </g>
          </g>
        </g>
      </g>
    </g>
  </g>
</svg>
