<svg xmlns="http://www.w3.org/2000/svg" xmlns:xlink="http://www.w3.org/1999/xlink" width="34" height="17" viewBox="0 0 34 17">
  <defs>
    <clipPath id="clip-path">
      <rect id="長方形_430" data-name="長方形 430" width="34" height="17" transform="translate(-10856 742)" fill="#fff" stroke="#707070" stroke-width="1"/>
    </clipPath>
    <clipPath id="clip-path-2">
      <rect id="長方形_429" data-name="長方形 429" width="34" height="350" transform="translate(484 814)" fill="#fff" stroke="#707070" stroke-width="1"/>
    </clipPath>
    <clipPath id="clip-path-3">
      <rect width="1250" height="34" fill="none"/>
    </clipPath>
    <clipPath id="clip-path-4">
      <rect id="長方形_374" data-name="長方形 374" width="86" height="20" transform="translate(149.739 1666.233)" fill="#03bf56"/>
    </clipPath>
    <clipPath id="clip-path-5">
      <rect id="長方形_373" data-name="長方形 373" width="722" height="30" transform="translate(-0.103 -0.135)" fill="#fff" stroke="#707070" stroke-width="1"/>
    </clipPath>
    <clipPath id="clip-path-6">
      <rect id="長方形_372" data-name="長方形 372" width="929.711" height="23.519" fill="none"/>
    </clipPath>
  </defs>
  <g id="wave" transform="translate(10856 -742)" clip-path="url(#clip-path)">
    <g id="マスクグループ_235" data-name="マスクグループ 235" transform="translate(-9718 248) rotate(90)" clip-path="url(#clip-path-2)">
      <g id="リピートグリッド_10" data-name="リピートグリッド 10" transform="translate(518 814) rotate(90)" clip-path="url(#clip-path-3)">
        <g transform="translate(-150 -1666)">
          <g id="マスクグループ_198" data-name="マスクグループ 198" transform="translate(0.261 6.767)" clip-path="url(#clip-path-4)">
            <g id="マスクグループ_197" data-name="マスクグループ 197" transform="translate(101.843 1656.369)" clip-path="url(#clip-path-5)">
              <g id="グループ_400" data-name="グループ 400" transform="translate(-86.96 6.579)">
                <g id="グループ_399" data-name="グループ 399" transform="translate(0 0)" clip-path="url(#clip-path-6)">
                  <path id="パス_111" data-name="パス 111" d="M1.973,1.535l9.1,11.694c4.269,5.488,11.255,5.487,15.524,0l1.335-1.716c4.269-5.488,11.256-5.488,15.525,0l1.335,1.716c4.269,5.488,11.255,5.488,15.525,0l1.335-1.716c4.27-5.488,11.256-5.488,15.525,0l1.335,1.716c4.269,5.488,11.255,5.488,15.525,0l1.335-1.717c4.27-5.488,11.256-5.487,15.525,0l1.335,1.716c4.269,5.488,11.256,5.488,15.525,0l1.336-1.717c4.269-5.488,11.256-5.487,15.525,0l1.335,1.716c4.269,5.488,11.256,5.488,15.525,0l1.335-1.717c4.27-5.488,11.256-5.487,15.525,0l1.335,1.716c4.269,5.488,11.255,5.488,15.525,0l1.335-1.717c4.27-5.488,11.256-5.487,15.525,0l1.335,1.716c4.269,5.488,11.256,5.488,15.525,0l1.335-1.717c4.27-5.488,11.256-5.487,15.525,0l1.335,1.716c4.27,5.488,11.256,5.488,15.525,0l1.335-1.716c4.269-5.488,11.256-5.488,15.525,0l1.335,1.717c4.27,5.488,11.256,5.487,15.525,0l1.335-1.716c4.269-5.488,11.256-5.488,15.525,0l1.335,1.716c4.27,5.488,11.256,5.488,15.525,0l1.336-1.717c4.269-5.488,11.256-5.487,15.525,0l1.335,1.716c4.269,5.488,11.256,5.488,15.525,0l1.335-1.716c4.269-5.488,11.256-5.488,15.525,0l1.335,1.716c4.27,5.488,11.256,5.488,15.525,0l1.335-1.717c4.27-5.488,11.256-5.488,15.525,0l1.336,1.717c4.269,5.488,11.256,5.488,15.525,0l1.335-1.717c4.27-5.488,11.256-5.487,15.524,0l1.334,1.714c4.269,5.488,11.255,5.489,15.524,0l1.336-1.717c4.269-5.488,11.256-5.487,15.524,0l1.335,1.716c4.269,5.488,11.254,5.488,15.523,0L500,11.513c4.269-5.488,11.255-5.488,15.525,0l1.335,1.716c4.27,5.488,11.255,5.488,15.525,0l1.334-1.716c4.269-5.488,11.255-5.488,15.525,0l1.335,1.716c4.269,5.488,11.256,5.488,15.525,0l1.336-1.717c4.27-5.488,11.256-5.487,15.525,0l1.335,1.716c4.269,5.488,11.256,5.488,15.525,0l1.335-1.716c4.269-5.488,11.255-5.488,15.525,0l1.335,1.716c4.27,5.488,11.256,5.488,15.525,0l1.335-1.716c4.269-5.488,11.255-5.488,15.525,0l1.335,1.717c4.27,5.488,11.256,5.488,15.526,0l1.336-1.717c4.27-5.488,11.256-5.488,15.526,0l1.336,1.717c4.269,5.488,11.256,5.488,15.525,0l1.336-1.717c4.269-5.488,11.256-5.488,15.525,0l1.336,1.717c4.27,5.488,11.256,5.488,15.526,0l1.336-1.717c4.27-5.488,11.256-5.488,15.526,0l1.336,1.717c4.27,5.488,11.257,5.488,15.526,0l1.336-1.717c4.27-5.488,11.256-5.487,15.525,0l1.335,1.716c4.269,5.488,11.255,5.488,15.525,0l1.336-1.717c4.27-5.488,11.256-5.488,15.525,0l1.336,1.717c4.27,5.488,11.257,5.488,15.526,0l1.337-1.718c4.27-5.487,11.257-5.487,15.526,0l1.337,1.718c4.27,5.487,11.257,5.487,15.527,0l1.336-1.718c4.27-5.487,11.257-5.487,15.527,0l1.337,1.718c4.27,5.487,11.258,5.488,15.528,0l1.338-1.719c4.27-5.487,11.258-5.487,15.528,0l9.1,11.695" transform="translate(-0.785 -0.611)" fill="none" stroke="#03bf56" stroke-miterlimit="10" stroke-width="4"/>
                </g>
              </g>
            </g>
          </g>
        </g>
        <g transform="translate(-82 -1666)">
          <g id="マスクグループ_200" data-name="マスクグループ 200" transform="translate(0.261 6.767)" clip-path="url(#clip-path-4)">
            <g id="マスクグループ_199" data-name="マスクグループ 199" transform="translate(101.843 1656.369)" clip-path="url(#clip-path-5)">
              <g id="グループ_402" data-name="グループ 402" transform="translate(-86.96 6.579)">
                <g id="グループ_401" data-name="グループ 401" transform="translate(0 0)" clip-path="url(#clip-path-6)">
                  <path id="パス_112" data-name="パス 112" d="M1.973,1.535l9.1,11.694c4.269,5.488,11.255,5.487,15.524,0l1.335-1.716c4.269-5.488,11.256-5.488,15.525,0l1.335,1.716c4.269,5.488,11.255,5.488,15.525,0l1.335-1.716c4.27-5.488,11.256-5.488,15.525,0l1.335,1.716c4.269,5.488,11.255,5.488,15.525,0l1.335-1.717c4.27-5.488,11.256-5.487,15.525,0l1.335,1.716c4.269,5.488,11.256,5.488,15.525,0l1.336-1.717c4.269-5.488,11.256-5.487,15.525,0l1.335,1.716c4.269,5.488,11.256,5.488,15.525,0l1.335-1.717c4.27-5.488,11.256-5.487,15.525,0l1.335,1.716c4.269,5.488,11.255,5.488,15.525,0l1.335-1.717c4.27-5.488,11.256-5.487,15.525,0l1.335,1.716c4.269,5.488,11.256,5.488,15.525,0l1.335-1.717c4.27-5.488,11.256-5.487,15.525,0l1.335,1.716c4.27,5.488,11.256,5.488,15.525,0l1.335-1.716c4.269-5.488,11.256-5.488,15.525,0l1.335,1.717c4.27,5.488,11.256,5.487,15.525,0l1.335-1.716c4.269-5.488,11.256-5.488,15.525,0l1.335,1.716c4.27,5.488,11.256,5.488,15.525,0l1.336-1.717c4.269-5.488,11.256-5.487,15.525,0l1.335,1.716c4.269,5.488,11.256,5.488,15.525,0l1.335-1.716c4.269-5.488,11.256-5.488,15.525,0l1.335,1.716c4.27,5.488,11.256,5.488,15.525,0l1.335-1.717c4.27-5.488,11.256-5.488,15.525,0l1.336,1.717c4.269,5.488,11.256,5.488,15.525,0l1.335-1.717c4.27-5.488,11.256-5.487,15.524,0l1.334,1.714c4.269,5.488,11.255,5.489,15.524,0l1.336-1.717c4.269-5.488,11.256-5.487,15.524,0l1.335,1.716c4.269,5.488,11.254,5.488,15.523,0L500,11.513c4.269-5.488,11.255-5.488,15.525,0l1.335,1.716c4.27,5.488,11.255,5.488,15.525,0l1.334-1.716c4.269-5.488,11.255-5.488,15.525,0l1.335,1.716c4.269,5.488,11.256,5.488,15.525,0l1.336-1.717c4.27-5.488,11.256-5.487,15.525,0l1.335,1.716c4.269,5.488,11.256,5.488,15.525,0l1.335-1.716c4.269-5.488,11.255-5.488,15.525,0l1.335,1.716c4.27,5.488,11.256,5.488,15.525,0l1.335-1.716c4.269-5.488,11.255-5.488,15.525,0l1.335,1.717c4.27,5.488,11.256,5.488,15.526,0l1.336-1.717c4.27-5.488,11.256-5.488,15.526,0l1.336,1.717c4.269,5.488,11.256,5.488,15.525,0l1.336-1.717c4.269-5.488,11.256-5.488,15.525,0l1.336,1.717c4.27,5.488,11.256,5.488,15.526,0l1.336-1.717c4.27-5.488,11.256-5.488,15.526,0l1.336,1.717c4.27,5.488,11.257,5.488,15.526,0l1.336-1.717c4.27-5.488,11.256-5.487,15.525,0l1.335,1.716c4.269,5.488,11.255,5.488,15.525,0l1.336-1.717c4.27-5.488,11.256-5.488,15.525,0l1.336,1.717c4.27,5.488,11.257,5.488,15.526,0l1.337-1.718c4.27-5.487,11.257-5.487,15.526,0l1.337,1.718c4.27,5.487,11.257,5.487,15.527,0l1.336-1.718c4.27-5.487,11.257-5.487,15.527,0l1.337,1.718c4.27,5.487,11.258,5.488,15.528,0l1.338-1.719c4.27-5.487,11.258-5.487,15.528,0l9.1,11.695" transform="translate(-0.785 -0.611)" fill="none" stroke="#03bf56" stroke-miterlimit="10" stroke-width="4"/>
                </g>
              </g>
            </g>
          </g>
        </g>
        <g transform="translate(-14 -1666)">
          <g id="マスクグループ_202" data-name="マスクグループ 202" transform="translate(0.261 6.767)" clip-path="url(#clip-path-4)">
            <g id="マスクグループ_201" data-name="マスクグループ 201" transform="translate(101.843 1656.369)" clip-path="url(#clip-path-5)">
              <g id="グループ_404" data-name="グループ 404" transform="translate(-86.96 6.579)">
                <g id="グループ_403" data-name="グループ 403" transform="translate(0 0)" clip-path="url(#clip-path-6)">
                  <path id="パス_113" data-name="パス 113" d="M1.973,1.535l9.1,11.694c4.269,5.488,11.255,5.487,15.524,0l1.335-1.716c4.269-5.488,11.256-5.488,15.525,0l1.335,1.716c4.269,5.488,11.255,5.488,15.525,0l1.335-1.716c4.27-5.488,11.256-5.488,15.525,0l1.335,1.716c4.269,5.488,11.255,5.488,15.525,0l1.335-1.717c4.27-5.488,11.256-5.487,15.525,0l1.335,1.716c4.269,5.488,11.256,5.488,15.525,0l1.336-1.717c4.269-5.488,11.256-5.487,15.525,0l1.335,1.716c4.269,5.488,11.256,5.488,15.525,0l1.335-1.717c4.27-5.488,11.256-5.487,15.525,0l1.335,1.716c4.269,5.488,11.255,5.488,15.525,0l1.335-1.717c4.27-5.488,11.256-5.487,15.525,0l1.335,1.716c4.269,5.488,11.256,5.488,15.525,0l1.335-1.717c4.27-5.488,11.256-5.487,15.525,0l1.335,1.716c4.27,5.488,11.256,5.488,15.525,0l1.335-1.716c4.269-5.488,11.256-5.488,15.525,0l1.335,1.717c4.27,5.488,11.256,5.487,15.525,0l1.335-1.716c4.269-5.488,11.256-5.488,15.525,0l1.335,1.716c4.27,5.488,11.256,5.488,15.525,0l1.336-1.717c4.269-5.488,11.256-5.487,15.525,0l1.335,1.716c4.269,5.488,11.256,5.488,15.525,0l1.335-1.716c4.269-5.488,11.256-5.488,15.525,0l1.335,1.716c4.27,5.488,11.256,5.488,15.525,0l1.335-1.717c4.27-5.488,11.256-5.488,15.525,0l1.336,1.717c4.269,5.488,11.256,5.488,15.525,0l1.335-1.717c4.27-5.488,11.256-5.487,15.524,0l1.334,1.714c4.269,5.488,11.255,5.489,15.524,0l1.336-1.717c4.269-5.488,11.256-5.487,15.524,0l1.335,1.716c4.269,5.488,11.254,5.488,15.523,0L500,11.513c4.269-5.488,11.255-5.488,15.525,0l1.335,1.716c4.27,5.488,11.255,5.488,15.525,0l1.334-1.716c4.269-5.488,11.255-5.488,15.525,0l1.335,1.716c4.269,5.488,11.256,5.488,15.525,0l1.336-1.717c4.27-5.488,11.256-5.487,15.525,0l1.335,1.716c4.269,5.488,11.256,5.488,15.525,0l1.335-1.716c4.269-5.488,11.255-5.488,15.525,0l1.335,1.716c4.27,5.488,11.256,5.488,15.525,0l1.335-1.716c4.269-5.488,11.255-5.488,15.525,0l1.335,1.717c4.27,5.488,11.256,5.488,15.526,0l1.336-1.717c4.27-5.488,11.256-5.488,15.526,0l1.336,1.717c4.269,5.488,11.256,5.488,15.525,0l1.336-1.717c4.269-5.488,11.256-5.488,15.525,0l1.336,1.717c4.27,5.488,11.256,5.488,15.526,0l1.336-1.717c4.27-5.488,11.256-5.488,15.526,0l1.336,1.717c4.27,5.488,11.257,5.488,15.526,0l1.336-1.717c4.27-5.488,11.256-5.487,15.525,0l1.335,1.716c4.269,5.488,11.255,5.488,15.525,0l1.336-1.717c4.27-5.488,11.256-5.488,15.525,0l1.336,1.717c4.27,5.488,11.257,5.488,15.526,0l1.337-1.718c4.27-5.487,11.257-5.487,15.526,0l1.337,1.718c4.27,5.487,11.257,5.487,15.527,0l1.336-1.718c4.27-5.487,11.257-5.487,15.527,0l1.337,1.718c4.27,5.487,11.258,5.488,15.528,0l1.338-1.719c4.27-5.487,11.258-5.487,15.528,0l9.1,11.695" transform="translate(-0.785 -0.611)" fill="none" stroke="#03bf56" stroke-miterlimit="10" stroke-width="4"/>
                </g>
              </g>
            </g>
          </g>
        </g>
        <g transform="translate(54 -1666)">
          <g id="マスクグループ_204" data-name="マスクグループ 204" transform="translate(0.261 6.767)" clip-path="url(#clip-path-4)">
            <g id="マスクグループ_203" data-name="マスクグループ 203" transform="translate(101.843 1656.369)" clip-path="url(#clip-path-5)">
              <g id="グループ_406" data-name="グループ 406" transform="translate(-86.96 6.579)">
                <g id="グループ_405" data-name="グループ 405" transform="translate(0 0)" clip-path="url(#clip-path-6)">
                  <path id="パス_114" data-name="パス 114" d="M1.973,1.535l9.1,11.694c4.269,5.488,11.255,5.487,15.524,0l1.335-1.716c4.269-5.488,11.256-5.488,15.525,0l1.335,1.716c4.269,5.488,11.255,5.488,15.525,0l1.335-1.716c4.27-5.488,11.256-5.488,15.525,0l1.335,1.716c4.269,5.488,11.255,5.488,15.525,0l1.335-1.717c4.27-5.488,11.256-5.487,15.525,0l1.335,1.716c4.269,5.488,11.256,5.488,15.525,0l1.336-1.717c4.269-5.488,11.256-5.487,15.525,0l1.335,1.716c4.269,5.488,11.256,5.488,15.525,0l1.335-1.717c4.27-5.488,11.256-5.487,15.525,0l1.335,1.716c4.269,5.488,11.255,5.488,15.525,0l1.335-1.717c4.27-5.488,11.256-5.487,15.525,0l1.335,1.716c4.269,5.488,11.256,5.488,15.525,0l1.335-1.717c4.27-5.488,11.256-5.487,15.525,0l1.335,1.716c4.27,5.488,11.256,5.488,15.525,0l1.335-1.716c4.269-5.488,11.256-5.488,15.525,0l1.335,1.717c4.27,5.488,11.256,5.487,15.525,0l1.335-1.716c4.269-5.488,11.256-5.488,15.525,0l1.335,1.716c4.27,5.488,11.256,5.488,15.525,0l1.336-1.717c4.269-5.488,11.256-5.487,15.525,0l1.335,1.716c4.269,5.488,11.256,5.488,15.525,0l1.335-1.716c4.269-5.488,11.256-5.488,15.525,0l1.335,1.716c4.27,5.488,11.256,5.488,15.525,0l1.335-1.717c4.27-5.488,11.256-5.488,15.525,0l1.336,1.717c4.269,5.488,11.256,5.488,15.525,0l1.335-1.717c4.27-5.488,11.256-5.487,15.524,0l1.334,1.714c4.269,5.488,11.255,5.489,15.524,0l1.336-1.717c4.269-5.488,11.256-5.487,15.524,0l1.335,1.716c4.269,5.488,11.254,5.488,15.523,0L500,11.513c4.269-5.488,11.255-5.488,15.525,0l1.335,1.716c4.27,5.488,11.255,5.488,15.525,0l1.334-1.716c4.269-5.488,11.255-5.488,15.525,0l1.335,1.716c4.269,5.488,11.256,5.488,15.525,0l1.336-1.717c4.27-5.488,11.256-5.487,15.525,0l1.335,1.716c4.269,5.488,11.256,5.488,15.525,0l1.335-1.716c4.269-5.488,11.255-5.488,15.525,0l1.335,1.716c4.27,5.488,11.256,5.488,15.525,0l1.335-1.716c4.269-5.488,11.255-5.488,15.525,0l1.335,1.717c4.27,5.488,11.256,5.488,15.526,0l1.336-1.717c4.27-5.488,11.256-5.488,15.526,0l1.336,1.717c4.269,5.488,11.256,5.488,15.525,0l1.336-1.717c4.269-5.488,11.256-5.488,15.525,0l1.336,1.717c4.27,5.488,11.256,5.488,15.526,0l1.336-1.717c4.27-5.488,11.256-5.488,15.526,0l1.336,1.717c4.27,5.488,11.257,5.488,15.526,0l1.336-1.717c4.27-5.488,11.256-5.487,15.525,0l1.335,1.716c4.269,5.488,11.255,5.488,15.525,0l1.336-1.717c4.27-5.488,11.256-5.488,15.525,0l1.336,1.717c4.27,5.488,11.257,5.488,15.526,0l1.337-1.718c4.27-5.487,11.257-5.487,15.526,0l1.337,1.718c4.27,5.487,11.257,5.487,15.527,0l1.336-1.718c4.27-5.487,11.257-5.487,15.527,0l1.337,1.718c4.27,5.487,11.258,5.488,15.528,0l1.338-1.719c4.27-5.487,11.258-5.487,15.528,0l9.1,11.695" transform="translate(-0.785 -0.611)" fill="none" stroke="#03bf56" stroke-miterlimit="10" stroke-width="4"/>
                </g>
              </g>
            </g>
          </g>
        </g>
        <g transform="translate(122 -1666)">
          <g id="マスクグループ_206" data-name="マスクグループ 206" transform="translate(0.261 6.767)" clip-path="url(#clip-path-4)">
            <g id="マスクグループ_205" data-name="マスクグループ 205" transform="translate(101.843 1656.369)" clip-path="url(#clip-path-5)">
              <g id="グループ_408" data-name="グループ 408" transform="translate(-86.96 6.579)">
                <g id="グループ_407" data-name="グループ 407" transform="translate(0 0)" clip-path="url(#clip-path-6)">
                  <path id="パス_115" data-name="パス 115" d="M1.973,1.535l9.1,11.694c4.269,5.488,11.255,5.487,15.524,0l1.335-1.716c4.269-5.488,11.256-5.488,15.525,0l1.335,1.716c4.269,5.488,11.255,5.488,15.525,0l1.335-1.716c4.27-5.488,11.256-5.488,15.525,0l1.335,1.716c4.269,5.488,11.255,5.488,15.525,0l1.335-1.717c4.27-5.488,11.256-5.487,15.525,0l1.335,1.716c4.269,5.488,11.256,5.488,15.525,0l1.336-1.717c4.269-5.488,11.256-5.487,15.525,0l1.335,1.716c4.269,5.488,11.256,5.488,15.525,0l1.335-1.717c4.27-5.488,11.256-5.487,15.525,0l1.335,1.716c4.269,5.488,11.255,5.488,15.525,0l1.335-1.717c4.27-5.488,11.256-5.487,15.525,0l1.335,1.716c4.269,5.488,11.256,5.488,15.525,0l1.335-1.717c4.27-5.488,11.256-5.487,15.525,0l1.335,1.716c4.27,5.488,11.256,5.488,15.525,0l1.335-1.716c4.269-5.488,11.256-5.488,15.525,0l1.335,1.717c4.27,5.488,11.256,5.487,15.525,0l1.335-1.716c4.269-5.488,11.256-5.488,15.525,0l1.335,1.716c4.27,5.488,11.256,5.488,15.525,0l1.336-1.717c4.269-5.488,11.256-5.487,15.525,0l1.335,1.716c4.269,5.488,11.256,5.488,15.525,0l1.335-1.716c4.269-5.488,11.256-5.488,15.525,0l1.335,1.716c4.27,5.488,11.256,5.488,15.525,0l1.335-1.717c4.27-5.488,11.256-5.488,15.525,0l1.336,1.717c4.269,5.488,11.256,5.488,15.525,0l1.335-1.717c4.27-5.488,11.256-5.487,15.524,0l1.334,1.714c4.269,5.488,11.255,5.489,15.524,0l1.336-1.717c4.269-5.488,11.256-5.487,15.524,0l1.335,1.716c4.269,5.488,11.254,5.488,15.523,0L500,11.513c4.269-5.488,11.255-5.488,15.525,0l1.335,1.716c4.27,5.488,11.255,5.488,15.525,0l1.334-1.716c4.269-5.488,11.255-5.488,15.525,0l1.335,1.716c4.269,5.488,11.256,5.488,15.525,0l1.336-1.717c4.27-5.488,11.256-5.487,15.525,0l1.335,1.716c4.269,5.488,11.256,5.488,15.525,0l1.335-1.716c4.269-5.488,11.255-5.488,15.525,0l1.335,1.716c4.27,5.488,11.256,5.488,15.525,0l1.335-1.716c4.269-5.488,11.255-5.488,15.525,0l1.335,1.717c4.27,5.488,11.256,5.488,15.526,0l1.336-1.717c4.27-5.488,11.256-5.488,15.526,0l1.336,1.717c4.269,5.488,11.256,5.488,15.525,0l1.336-1.717c4.269-5.488,11.256-5.488,15.525,0l1.336,1.717c4.27,5.488,11.256,5.488,15.526,0l1.336-1.717c4.27-5.488,11.256-5.488,15.526,0l1.336,1.717c4.27,5.488,11.257,5.488,15.526,0l1.336-1.717c4.27-5.488,11.256-5.487,15.525,0l1.335,1.716c4.269,5.488,11.255,5.488,15.525,0l1.336-1.717c4.27-5.488,11.256-5.488,15.525,0l1.336,1.717c4.27,5.488,11.257,5.488,15.526,0l1.337-1.718c4.27-5.487,11.257-5.487,15.526,0l1.337,1.718c4.27,5.487,11.257,5.487,15.527,0l1.336-1.718c4.27-5.487,11.257-5.487,15.527,0l1.337,1.718c4.27,5.487,11.258,5.488,15.528,0l1.338-1.719c4.27-5.487,11.258-5.487,15.528,0l9.1,11.695" transform="translate(-0.785 -0.611)" fill="none" stroke="#03bf56" stroke-miterlimit="10" stroke-width="4"/>
                </g>
              </g>
            </g>
          </g>
        </g>
        <g transform="translate(190 -1666)">
          <g id="マスクグループ_208" data-name="マスクグループ 208" transform="translate(0.261 6.767)" clip-path="url(#clip-path-4)">
            <g id="マスクグループ_207" data-name="マスクグループ 207" transform="translate(101.843 1656.369)" clip-path="url(#clip-path-5)">
              <g id="グループ_410" data-name="グループ 410" transform="translate(-86.96 6.579)">
                <g id="グループ_409" data-name="グループ 409" transform="translate(0 0)" clip-path="url(#clip-path-6)">
                  <path id="パス_116" data-name="パス 116" d="M1.973,1.535l9.1,11.694c4.269,5.488,11.255,5.487,15.524,0l1.335-1.716c4.269-5.488,11.256-5.488,15.525,0l1.335,1.716c4.269,5.488,11.255,5.488,15.525,0l1.335-1.716c4.27-5.488,11.256-5.488,15.525,0l1.335,1.716c4.269,5.488,11.255,5.488,15.525,0l1.335-1.717c4.27-5.488,11.256-5.487,15.525,0l1.335,1.716c4.269,5.488,11.256,5.488,15.525,0l1.336-1.717c4.269-5.488,11.256-5.487,15.525,0l1.335,1.716c4.269,5.488,11.256,5.488,15.525,0l1.335-1.717c4.27-5.488,11.256-5.487,15.525,0l1.335,1.716c4.269,5.488,11.255,5.488,15.525,0l1.335-1.717c4.27-5.488,11.256-5.487,15.525,0l1.335,1.716c4.269,5.488,11.256,5.488,15.525,0l1.335-1.717c4.27-5.488,11.256-5.487,15.525,0l1.335,1.716c4.27,5.488,11.256,5.488,15.525,0l1.335-1.716c4.269-5.488,11.256-5.488,15.525,0l1.335,1.717c4.27,5.488,11.256,5.487,15.525,0l1.335-1.716c4.269-5.488,11.256-5.488,15.525,0l1.335,1.716c4.27,5.488,11.256,5.488,15.525,0l1.336-1.717c4.269-5.488,11.256-5.487,15.525,0l1.335,1.716c4.269,5.488,11.256,5.488,15.525,0l1.335-1.716c4.269-5.488,11.256-5.488,15.525,0l1.335,1.716c4.27,5.488,11.256,5.488,15.525,0l1.335-1.717c4.27-5.488,11.256-5.488,15.525,0l1.336,1.717c4.269,5.488,11.256,5.488,15.525,0l1.335-1.717c4.27-5.488,11.256-5.487,15.524,0l1.334,1.714c4.269,5.488,11.255,5.489,15.524,0l1.336-1.717c4.269-5.488,11.256-5.487,15.524,0l1.335,1.716c4.269,5.488,11.254,5.488,15.523,0L500,11.513c4.269-5.488,11.255-5.488,15.525,0l1.335,1.716c4.27,5.488,11.255,5.488,15.525,0l1.334-1.716c4.269-5.488,11.255-5.488,15.525,0l1.335,1.716c4.269,5.488,11.256,5.488,15.525,0l1.336-1.717c4.27-5.488,11.256-5.487,15.525,0l1.335,1.716c4.269,5.488,11.256,5.488,15.525,0l1.335-1.716c4.269-5.488,11.255-5.488,15.525,0l1.335,1.716c4.27,5.488,11.256,5.488,15.525,0l1.335-1.716c4.269-5.488,11.255-5.488,15.525,0l1.335,1.717c4.27,5.488,11.256,5.488,15.526,0l1.336-1.717c4.27-5.488,11.256-5.488,15.526,0l1.336,1.717c4.269,5.488,11.256,5.488,15.525,0l1.336-1.717c4.269-5.488,11.256-5.488,15.525,0l1.336,1.717c4.27,5.488,11.256,5.488,15.526,0l1.336-1.717c4.27-5.488,11.256-5.488,15.526,0l1.336,1.717c4.27,5.488,11.257,5.488,15.526,0l1.336-1.717c4.27-5.488,11.256-5.487,15.525,0l1.335,1.716c4.269,5.488,11.255,5.488,15.525,0l1.336-1.717c4.27-5.488,11.256-5.488,15.525,0l1.336,1.717c4.27,5.488,11.257,5.488,15.526,0l1.337-1.718c4.27-5.487,11.257-5.487,15.526,0l1.337,1.718c4.27,5.487,11.257,5.487,15.527,0l1.336-1.718c4.27-5.487,11.257-5.487,15.527,0l1.337,1.718c4.27,5.487,11.258,5.488,15.528,0l1.338-1.719c4.27-5.487,11.258-5.487,15.528,0l9.1,11.695" transform="translate(-0.785 -0.611)" fill="none" stroke="#03bf56" stroke-miterlimit="10" stroke-width="4"/>
                </g>
              </g>
            </g>
          </g>
        </g>
        <g transform="translate(258 -1666)">
          <g id="マスクグループ_210" data-name="マスクグループ 210" transform="translate(0.261 6.767)" clip-path="url(#clip-path-4)">
            <g id="マスクグループ_209" data-name="マスクグループ 209" transform="translate(101.843 1656.369)" clip-path="url(#clip-path-5)">
              <g id="グループ_412" data-name="グループ 412" transform="translate(-86.96 6.579)">
                <g id="グループ_411" data-name="グループ 411" transform="translate(0 0)" clip-path="url(#clip-path-6)">
                  <path id="パス_117" data-name="パス 117" d="M1.973,1.535l9.1,11.694c4.269,5.488,11.255,5.487,15.524,0l1.335-1.716c4.269-5.488,11.256-5.488,15.525,0l1.335,1.716c4.269,5.488,11.255,5.488,15.525,0l1.335-1.716c4.27-5.488,11.256-5.488,15.525,0l1.335,1.716c4.269,5.488,11.255,5.488,15.525,0l1.335-1.717c4.27-5.488,11.256-5.487,15.525,0l1.335,1.716c4.269,5.488,11.256,5.488,15.525,0l1.336-1.717c4.269-5.488,11.256-5.487,15.525,0l1.335,1.716c4.269,5.488,11.256,5.488,15.525,0l1.335-1.717c4.27-5.488,11.256-5.487,15.525,0l1.335,1.716c4.269,5.488,11.255,5.488,15.525,0l1.335-1.717c4.27-5.488,11.256-5.487,15.525,0l1.335,1.716c4.269,5.488,11.256,5.488,15.525,0l1.335-1.717c4.27-5.488,11.256-5.487,15.525,0l1.335,1.716c4.27,5.488,11.256,5.488,15.525,0l1.335-1.716c4.269-5.488,11.256-5.488,15.525,0l1.335,1.717c4.27,5.488,11.256,5.487,15.525,0l1.335-1.716c4.269-5.488,11.256-5.488,15.525,0l1.335,1.716c4.27,5.488,11.256,5.488,15.525,0l1.336-1.717c4.269-5.488,11.256-5.487,15.525,0l1.335,1.716c4.269,5.488,11.256,5.488,15.525,0l1.335-1.716c4.269-5.488,11.256-5.488,15.525,0l1.335,1.716c4.27,5.488,11.256,5.488,15.525,0l1.335-1.717c4.27-5.488,11.256-5.488,15.525,0l1.336,1.717c4.269,5.488,11.256,5.488,15.525,0l1.335-1.717c4.27-5.488,11.256-5.487,15.524,0l1.334,1.714c4.269,5.488,11.255,5.489,15.524,0l1.336-1.717c4.269-5.488,11.256-5.487,15.524,0l1.335,1.716c4.269,5.488,11.254,5.488,15.523,0L500,11.513c4.269-5.488,11.255-5.488,15.525,0l1.335,1.716c4.27,5.488,11.255,5.488,15.525,0l1.334-1.716c4.269-5.488,11.255-5.488,15.525,0l1.335,1.716c4.269,5.488,11.256,5.488,15.525,0l1.336-1.717c4.27-5.488,11.256-5.487,15.525,0l1.335,1.716c4.269,5.488,11.256,5.488,15.525,0l1.335-1.716c4.269-5.488,11.255-5.488,15.525,0l1.335,1.716c4.27,5.488,11.256,5.488,15.525,0l1.335-1.716c4.269-5.488,11.255-5.488,15.525,0l1.335,1.717c4.27,5.488,11.256,5.488,15.526,0l1.336-1.717c4.27-5.488,11.256-5.488,15.526,0l1.336,1.717c4.269,5.488,11.256,5.488,15.525,0l1.336-1.717c4.269-5.488,11.256-5.488,15.525,0l1.336,1.717c4.27,5.488,11.256,5.488,15.526,0l1.336-1.717c4.27-5.488,11.256-5.488,15.526,0l1.336,1.717c4.27,5.488,11.257,5.488,15.526,0l1.336-1.717c4.27-5.488,11.256-5.487,15.525,0l1.335,1.716c4.269,5.488,11.255,5.488,15.525,0l1.336-1.717c4.27-5.488,11.256-5.488,15.525,0l1.336,1.717c4.27,5.488,11.257,5.488,15.526,0l1.337-1.718c4.27-5.487,11.257-5.487,15.526,0l1.337,1.718c4.27,5.487,11.257,5.487,15.527,0l1.336-1.718c4.27-5.487,11.257-5.487,15.527,0l1.337,1.718c4.27,5.487,11.258,5.488,15.528,0l1.338-1.719c4.27-5.487,11.258-5.487,15.528,0l9.1,11.695" transform="translate(-0.785 -0.611)" fill="none" stroke="#03bf56" stroke-miterlimit="10" stroke-width="4"/>
                </g>
              </g>
            </g>
          </g>
        </g>
        <g transform="translate(326 -1666)">
          <g id="マスクグループ_212" data-name="マスクグループ 212" transform="translate(0.261 6.767)" clip-path="url(#clip-path-4)">
            <g id="マスクグループ_211" data-name="マスクグループ 211" transform="translate(101.843 1656.369)" clip-path="url(#clip-path-5)">
              <g id="グループ_414" data-name="グループ 414" transform="translate(-86.96 6.579)">
                <g id="グループ_413" data-name="グループ 413" transform="translate(0 0)" clip-path="url(#clip-path-6)">
                  <path id="パス_118" data-name="パス 118" d="M1.973,1.535l9.1,11.694c4.269,5.488,11.255,5.487,15.524,0l1.335-1.716c4.269-5.488,11.256-5.488,15.525,0l1.335,1.716c4.269,5.488,11.255,5.488,15.525,0l1.335-1.716c4.27-5.488,11.256-5.488,15.525,0l1.335,1.716c4.269,5.488,11.255,5.488,15.525,0l1.335-1.717c4.27-5.488,11.256-5.487,15.525,0l1.335,1.716c4.269,5.488,11.256,5.488,15.525,0l1.336-1.717c4.269-5.488,11.256-5.487,15.525,0l1.335,1.716c4.269,5.488,11.256,5.488,15.525,0l1.335-1.717c4.27-5.488,11.256-5.487,15.525,0l1.335,1.716c4.269,5.488,11.255,5.488,15.525,0l1.335-1.717c4.27-5.488,11.256-5.487,15.525,0l1.335,1.716c4.269,5.488,11.256,5.488,15.525,0l1.335-1.717c4.27-5.488,11.256-5.487,15.525,0l1.335,1.716c4.27,5.488,11.256,5.488,15.525,0l1.335-1.716c4.269-5.488,11.256-5.488,15.525,0l1.335,1.717c4.27,5.488,11.256,5.487,15.525,0l1.335-1.716c4.269-5.488,11.256-5.488,15.525,0l1.335,1.716c4.27,5.488,11.256,5.488,15.525,0l1.336-1.717c4.269-5.488,11.256-5.487,15.525,0l1.335,1.716c4.269,5.488,11.256,5.488,15.525,0l1.335-1.716c4.269-5.488,11.256-5.488,15.525,0l1.335,1.716c4.27,5.488,11.256,5.488,15.525,0l1.335-1.717c4.27-5.488,11.256-5.488,15.525,0l1.336,1.717c4.269,5.488,11.256,5.488,15.525,0l1.335-1.717c4.27-5.488,11.256-5.487,15.524,0l1.334,1.714c4.269,5.488,11.255,5.489,15.524,0l1.336-1.717c4.269-5.488,11.256-5.487,15.524,0l1.335,1.716c4.269,5.488,11.254,5.488,15.523,0L500,11.513c4.269-5.488,11.255-5.488,15.525,0l1.335,1.716c4.27,5.488,11.255,5.488,15.525,0l1.334-1.716c4.269-5.488,11.255-5.488,15.525,0l1.335,1.716c4.269,5.488,11.256,5.488,15.525,0l1.336-1.717c4.27-5.488,11.256-5.487,15.525,0l1.335,1.716c4.269,5.488,11.256,5.488,15.525,0l1.335-1.716c4.269-5.488,11.255-5.488,15.525,0l1.335,1.716c4.27,5.488,11.256,5.488,15.525,0l1.335-1.716c4.269-5.488,11.255-5.488,15.525,0l1.335,1.717c4.27,5.488,11.256,5.488,15.526,0l1.336-1.717c4.27-5.488,11.256-5.488,15.526,0l1.336,1.717c4.269,5.488,11.256,5.488,15.525,0l1.336-1.717c4.269-5.488,11.256-5.488,15.525,0l1.336,1.717c4.27,5.488,11.256,5.488,15.526,0l1.336-1.717c4.27-5.488,11.256-5.488,15.526,0l1.336,1.717c4.27,5.488,11.257,5.488,15.526,0l1.336-1.717c4.27-5.488,11.256-5.487,15.525,0l1.335,1.716c4.269,5.488,11.255,5.488,15.525,0l1.336-1.717c4.27-5.488,11.256-5.488,15.525,0l1.336,1.717c4.27,5.488,11.257,5.488,15.526,0l1.337-1.718c4.27-5.487,11.257-5.487,15.526,0l1.337,1.718c4.27,5.487,11.257,5.487,15.527,0l1.336-1.718c4.27-5.487,11.257-5.487,15.527,0l1.337,1.718c4.27,5.487,11.258,5.488,15.528,0l1.338-1.719c4.27-5.487,11.258-5.487,15.528,0l9.1,11.695" transform="translate(-0.785 -0.611)" fill="none" stroke="#03bf56" stroke-miterlimit="10" stroke-width="4"/>
                </g>
              </g>
            </g>
          </g>
        </g>
        <g transform="translate(394 -1666)">
          <g id="マスクグループ_214" data-name="マスクグループ 214" transform="translate(0.261 6.767)" clip-path="url(#clip-path-4)">
            <g id="マスクグループ_213" data-name="マスクグループ 213" transform="translate(101.843 1656.369)" clip-path="url(#clip-path-5)">
              <g id="グループ_416" data-name="グループ 416" transform="translate(-86.96 6.579)">
                <g id="グループ_415" data-name="グループ 415" transform="translate(0 0)" clip-path="url(#clip-path-6)">
                  <path id="パス_119" data-name="パス 119" d="M1.973,1.535l9.1,11.694c4.269,5.488,11.255,5.487,15.524,0l1.335-1.716c4.269-5.488,11.256-5.488,15.525,0l1.335,1.716c4.269,5.488,11.255,5.488,15.525,0l1.335-1.716c4.27-5.488,11.256-5.488,15.525,0l1.335,1.716c4.269,5.488,11.255,5.488,15.525,0l1.335-1.717c4.27-5.488,11.256-5.487,15.525,0l1.335,1.716c4.269,5.488,11.256,5.488,15.525,0l1.336-1.717c4.269-5.488,11.256-5.487,15.525,0l1.335,1.716c4.269,5.488,11.256,5.488,15.525,0l1.335-1.717c4.27-5.488,11.256-5.487,15.525,0l1.335,1.716c4.269,5.488,11.255,5.488,15.525,0l1.335-1.717c4.27-5.488,11.256-5.487,15.525,0l1.335,1.716c4.269,5.488,11.256,5.488,15.525,0l1.335-1.717c4.27-5.488,11.256-5.487,15.525,0l1.335,1.716c4.27,5.488,11.256,5.488,15.525,0l1.335-1.716c4.269-5.488,11.256-5.488,15.525,0l1.335,1.717c4.27,5.488,11.256,5.487,15.525,0l1.335-1.716c4.269-5.488,11.256-5.488,15.525,0l1.335,1.716c4.27,5.488,11.256,5.488,15.525,0l1.336-1.717c4.269-5.488,11.256-5.487,15.525,0l1.335,1.716c4.269,5.488,11.256,5.488,15.525,0l1.335-1.716c4.269-5.488,11.256-5.488,15.525,0l1.335,1.716c4.27,5.488,11.256,5.488,15.525,0l1.335-1.717c4.27-5.488,11.256-5.488,15.525,0l1.336,1.717c4.269,5.488,11.256,5.488,15.525,0l1.335-1.717c4.27-5.488,11.256-5.487,15.524,0l1.334,1.714c4.269,5.488,11.255,5.489,15.524,0l1.336-1.717c4.269-5.488,11.256-5.487,15.524,0l1.335,1.716c4.269,5.488,11.254,5.488,15.523,0L500,11.513c4.269-5.488,11.255-5.488,15.525,0l1.335,1.716c4.27,5.488,11.255,5.488,15.525,0l1.334-1.716c4.269-5.488,11.255-5.488,15.525,0l1.335,1.716c4.269,5.488,11.256,5.488,15.525,0l1.336-1.717c4.27-5.488,11.256-5.487,15.525,0l1.335,1.716c4.269,5.488,11.256,5.488,15.525,0l1.335-1.716c4.269-5.488,11.255-5.488,15.525,0l1.335,1.716c4.27,5.488,11.256,5.488,15.525,0l1.335-1.716c4.269-5.488,11.255-5.488,15.525,0l1.335,1.717c4.27,5.488,11.256,5.488,15.526,0l1.336-1.717c4.27-5.488,11.256-5.488,15.526,0l1.336,1.717c4.269,5.488,11.256,5.488,15.525,0l1.336-1.717c4.269-5.488,11.256-5.488,15.525,0l1.336,1.717c4.27,5.488,11.256,5.488,15.526,0l1.336-1.717c4.27-5.488,11.256-5.488,15.526,0l1.336,1.717c4.27,5.488,11.257,5.488,15.526,0l1.336-1.717c4.27-5.488,11.256-5.487,15.525,0l1.335,1.716c4.269,5.488,11.255,5.488,15.525,0l1.336-1.717c4.27-5.488,11.256-5.488,15.525,0l1.336,1.717c4.27,5.488,11.257,5.488,15.526,0l1.337-1.718c4.27-5.487,11.257-5.487,15.526,0l1.337,1.718c4.27,5.487,11.257,5.487,15.527,0l1.336-1.718c4.27-5.487,11.257-5.487,15.527,0l1.337,1.718c4.27,5.487,11.258,5.488,15.528,0l1.338-1.719c4.27-5.487,11.258-5.487,15.528,0l9.1,11.695" transform="translate(-0.785 -0.611)" fill="none" stroke="#03bf56" stroke-miterlimit="10" stroke-width="4"/>
                </g>
              </g>
            </g>
          </g>
        </g>
        <g transform="translate(462 -1666)">
          <g id="マスクグループ_216" data-name="マスクグループ 216" transform="translate(0.261 6.767)" clip-path="url(#clip-path-4)">
            <g id="マスクグループ_215" data-name="マスクグループ 215" transform="translate(101.843 1656.369)" clip-path="url(#clip-path-5)">
              <g id="グループ_418" data-name="グループ 418" transform="translate(-86.96 6.579)">
                <g id="グループ_417" data-name="グループ 417" transform="translate(0 0)" clip-path="url(#clip-path-6)">
                  <path id="パス_120" data-name="パス 120" d="M1.973,1.535l9.1,11.694c4.269,5.488,11.255,5.487,15.524,0l1.335-1.716c4.269-5.488,11.256-5.488,15.525,0l1.335,1.716c4.269,5.488,11.255,5.488,15.525,0l1.335-1.716c4.27-5.488,11.256-5.488,15.525,0l1.335,1.716c4.269,5.488,11.255,5.488,15.525,0l1.335-1.717c4.27-5.488,11.256-5.487,15.525,0l1.335,1.716c4.269,5.488,11.256,5.488,15.525,0l1.336-1.717c4.269-5.488,11.256-5.487,15.525,0l1.335,1.716c4.269,5.488,11.256,5.488,15.525,0l1.335-1.717c4.27-5.488,11.256-5.487,15.525,0l1.335,1.716c4.269,5.488,11.255,5.488,15.525,0l1.335-1.717c4.27-5.488,11.256-5.487,15.525,0l1.335,1.716c4.269,5.488,11.256,5.488,15.525,0l1.335-1.717c4.27-5.488,11.256-5.487,15.525,0l1.335,1.716c4.27,5.488,11.256,5.488,15.525,0l1.335-1.716c4.269-5.488,11.256-5.488,15.525,0l1.335,1.717c4.27,5.488,11.256,5.487,15.525,0l1.335-1.716c4.269-5.488,11.256-5.488,15.525,0l1.335,1.716c4.27,5.488,11.256,5.488,15.525,0l1.336-1.717c4.269-5.488,11.256-5.487,15.525,0l1.335,1.716c4.269,5.488,11.256,5.488,15.525,0l1.335-1.716c4.269-5.488,11.256-5.488,15.525,0l1.335,1.716c4.27,5.488,11.256,5.488,15.525,0l1.335-1.717c4.27-5.488,11.256-5.488,15.525,0l1.336,1.717c4.269,5.488,11.256,5.488,15.525,0l1.335-1.717c4.27-5.488,11.256-5.487,15.524,0l1.334,1.714c4.269,5.488,11.255,5.489,15.524,0l1.336-1.717c4.269-5.488,11.256-5.487,15.524,0l1.335,1.716c4.269,5.488,11.254,5.488,15.523,0L500,11.513c4.269-5.488,11.255-5.488,15.525,0l1.335,1.716c4.27,5.488,11.255,5.488,15.525,0l1.334-1.716c4.269-5.488,11.255-5.488,15.525,0l1.335,1.716c4.269,5.488,11.256,5.488,15.525,0l1.336-1.717c4.27-5.488,11.256-5.487,15.525,0l1.335,1.716c4.269,5.488,11.256,5.488,15.525,0l1.335-1.716c4.269-5.488,11.255-5.488,15.525,0l1.335,1.716c4.27,5.488,11.256,5.488,15.525,0l1.335-1.716c4.269-5.488,11.255-5.488,15.525,0l1.335,1.717c4.27,5.488,11.256,5.488,15.526,0l1.336-1.717c4.27-5.488,11.256-5.488,15.526,0l1.336,1.717c4.269,5.488,11.256,5.488,15.525,0l1.336-1.717c4.269-5.488,11.256-5.488,15.525,0l1.336,1.717c4.27,5.488,11.256,5.488,15.526,0l1.336-1.717c4.27-5.488,11.256-5.488,15.526,0l1.336,1.717c4.27,5.488,11.257,5.488,15.526,0l1.336-1.717c4.27-5.488,11.256-5.487,15.525,0l1.335,1.716c4.269,5.488,11.255,5.488,15.525,0l1.336-1.717c4.27-5.488,11.256-5.488,15.525,0l1.336,1.717c4.27,5.488,11.257,5.488,15.526,0l1.337-1.718c4.27-5.487,11.257-5.487,15.526,0l1.337,1.718c4.27,5.487,11.257,5.487,15.527,0l1.336-1.718c4.27-5.487,11.257-5.487,15.527,0l1.337,1.718c4.27,5.487,11.258,5.488,15.528,0l1.338-1.719c4.27-5.487,11.258-5.487,15.528,0l9.1,11.695" transform="translate(-0.785 -0.611)" fill="none" stroke="#03bf56" stroke-miterlimit="10" stroke-width="4"/>
                </g>
              </g>
            </g>
          </g>
        </g>
        <g transform="translate(530 -1666)">
          <g id="マスクグループ_218" data-name="マスクグループ 218" transform="translate(0.261 6.767)" clip-path="url(#clip-path-4)">
            <g id="マスクグループ_217" data-name="マスクグループ 217" transform="translate(101.843 1656.369)" clip-path="url(#clip-path-5)">
              <g id="グループ_420" data-name="グループ 420" transform="translate(-86.96 6.579)">
                <g id="グループ_419" data-name="グループ 419" transform="translate(0 0)" clip-path="url(#clip-path-6)">
                  <path id="パス_121" data-name="パス 121" d="M1.973,1.535l9.1,11.694c4.269,5.488,11.255,5.487,15.524,0l1.335-1.716c4.269-5.488,11.256-5.488,15.525,0l1.335,1.716c4.269,5.488,11.255,5.488,15.525,0l1.335-1.716c4.27-5.488,11.256-5.488,15.525,0l1.335,1.716c4.269,5.488,11.255,5.488,15.525,0l1.335-1.717c4.27-5.488,11.256-5.487,15.525,0l1.335,1.716c4.269,5.488,11.256,5.488,15.525,0l1.336-1.717c4.269-5.488,11.256-5.487,15.525,0l1.335,1.716c4.269,5.488,11.256,5.488,15.525,0l1.335-1.717c4.27-5.488,11.256-5.487,15.525,0l1.335,1.716c4.269,5.488,11.255,5.488,15.525,0l1.335-1.717c4.27-5.488,11.256-5.487,15.525,0l1.335,1.716c4.269,5.488,11.256,5.488,15.525,0l1.335-1.717c4.27-5.488,11.256-5.487,15.525,0l1.335,1.716c4.27,5.488,11.256,5.488,15.525,0l1.335-1.716c4.269-5.488,11.256-5.488,15.525,0l1.335,1.717c4.27,5.488,11.256,5.487,15.525,0l1.335-1.716c4.269-5.488,11.256-5.488,15.525,0l1.335,1.716c4.27,5.488,11.256,5.488,15.525,0l1.336-1.717c4.269-5.488,11.256-5.487,15.525,0l1.335,1.716c4.269,5.488,11.256,5.488,15.525,0l1.335-1.716c4.269-5.488,11.256-5.488,15.525,0l1.335,1.716c4.27,5.488,11.256,5.488,15.525,0l1.335-1.717c4.27-5.488,11.256-5.488,15.525,0l1.336,1.717c4.269,5.488,11.256,5.488,15.525,0l1.335-1.717c4.27-5.488,11.256-5.487,15.524,0l1.334,1.714c4.269,5.488,11.255,5.489,15.524,0l1.336-1.717c4.269-5.488,11.256-5.487,15.524,0l1.335,1.716c4.269,5.488,11.254,5.488,15.523,0L500,11.513c4.269-5.488,11.255-5.488,15.525,0l1.335,1.716c4.27,5.488,11.255,5.488,15.525,0l1.334-1.716c4.269-5.488,11.255-5.488,15.525,0l1.335,1.716c4.269,5.488,11.256,5.488,15.525,0l1.336-1.717c4.27-5.488,11.256-5.487,15.525,0l1.335,1.716c4.269,5.488,11.256,5.488,15.525,0l1.335-1.716c4.269-5.488,11.255-5.488,15.525,0l1.335,1.716c4.27,5.488,11.256,5.488,15.525,0l1.335-1.716c4.269-5.488,11.255-5.488,15.525,0l1.335,1.717c4.27,5.488,11.256,5.488,15.526,0l1.336-1.717c4.27-5.488,11.256-5.488,15.526,0l1.336,1.717c4.269,5.488,11.256,5.488,15.525,0l1.336-1.717c4.269-5.488,11.256-5.488,15.525,0l1.336,1.717c4.27,5.488,11.256,5.488,15.526,0l1.336-1.717c4.27-5.488,11.256-5.488,15.526,0l1.336,1.717c4.27,5.488,11.257,5.488,15.526,0l1.336-1.717c4.27-5.488,11.256-5.487,15.525,0l1.335,1.716c4.269,5.488,11.255,5.488,15.525,0l1.336-1.717c4.27-5.488,11.256-5.488,15.525,0l1.336,1.717c4.27,5.488,11.257,5.488,15.526,0l1.337-1.718c4.27-5.487,11.257-5.487,15.526,0l1.337,1.718c4.27,5.487,11.257,5.487,15.527,0l1.336-1.718c4.27-5.487,11.257-5.487,15.527,0l1.337,1.718c4.27,5.487,11.258,5.488,15.528,0l1.338-1.719c4.27-5.487,11.258-5.487,15.528,0l9.1,11.695" transform="translate(-0.785 -0.611)" fill="none" stroke="#03bf56" stroke-miterlimit="10" stroke-width="4"/>
                </g>
              </g>
            </g>
          </g>
        </g>
        <g transform="translate(598 -1666)">
          <g id="マスクグループ_220" data-name="マスクグループ 220" transform="translate(0.261 6.767)" clip-path="url(#clip-path-4)">
            <g id="マスクグループ_219" data-name="マスクグループ 219" transform="translate(101.843 1656.369)" clip-path="url(#clip-path-5)">
              <g id="グループ_422" data-name="グループ 422" transform="translate(-86.96 6.579)">
                <g id="グループ_421" data-name="グループ 421" transform="translate(0 0)" clip-path="url(#clip-path-6)">
                  <path id="パス_122" data-name="パス 122" d="M1.973,1.535l9.1,11.694c4.269,5.488,11.255,5.487,15.524,0l1.335-1.716c4.269-5.488,11.256-5.488,15.525,0l1.335,1.716c4.269,5.488,11.255,5.488,15.525,0l1.335-1.716c4.27-5.488,11.256-5.488,15.525,0l1.335,1.716c4.269,5.488,11.255,5.488,15.525,0l1.335-1.717c4.27-5.488,11.256-5.487,15.525,0l1.335,1.716c4.269,5.488,11.256,5.488,15.525,0l1.336-1.717c4.269-5.488,11.256-5.487,15.525,0l1.335,1.716c4.269,5.488,11.256,5.488,15.525,0l1.335-1.717c4.27-5.488,11.256-5.487,15.525,0l1.335,1.716c4.269,5.488,11.255,5.488,15.525,0l1.335-1.717c4.27-5.488,11.256-5.487,15.525,0l1.335,1.716c4.269,5.488,11.256,5.488,15.525,0l1.335-1.717c4.27-5.488,11.256-5.487,15.525,0l1.335,1.716c4.27,5.488,11.256,5.488,15.525,0l1.335-1.716c4.269-5.488,11.256-5.488,15.525,0l1.335,1.717c4.27,5.488,11.256,5.487,15.525,0l1.335-1.716c4.269-5.488,11.256-5.488,15.525,0l1.335,1.716c4.27,5.488,11.256,5.488,15.525,0l1.336-1.717c4.269-5.488,11.256-5.487,15.525,0l1.335,1.716c4.269,5.488,11.256,5.488,15.525,0l1.335-1.716c4.269-5.488,11.256-5.488,15.525,0l1.335,1.716c4.27,5.488,11.256,5.488,15.525,0l1.335-1.717c4.27-5.488,11.256-5.488,15.525,0l1.336,1.717c4.269,5.488,11.256,5.488,15.525,0l1.335-1.717c4.27-5.488,11.256-5.487,15.524,0l1.334,1.714c4.269,5.488,11.255,5.489,15.524,0l1.336-1.717c4.269-5.488,11.256-5.487,15.524,0l1.335,1.716c4.269,5.488,11.254,5.488,15.523,0L500,11.513c4.269-5.488,11.255-5.488,15.525,0l1.335,1.716c4.27,5.488,11.255,5.488,15.525,0l1.334-1.716c4.269-5.488,11.255-5.488,15.525,0l1.335,1.716c4.269,5.488,11.256,5.488,15.525,0l1.336-1.717c4.27-5.488,11.256-5.487,15.525,0l1.335,1.716c4.269,5.488,11.256,5.488,15.525,0l1.335-1.716c4.269-5.488,11.255-5.488,15.525,0l1.335,1.716c4.27,5.488,11.256,5.488,15.525,0l1.335-1.716c4.269-5.488,11.255-5.488,15.525,0l1.335,1.717c4.27,5.488,11.256,5.488,15.526,0l1.336-1.717c4.27-5.488,11.256-5.488,15.526,0l1.336,1.717c4.269,5.488,11.256,5.488,15.525,0l1.336-1.717c4.269-5.488,11.256-5.488,15.525,0l1.336,1.717c4.27,5.488,11.256,5.488,15.526,0l1.336-1.717c4.27-5.488,11.256-5.488,15.526,0l1.336,1.717c4.27,5.488,11.257,5.488,15.526,0l1.336-1.717c4.27-5.488,11.256-5.487,15.525,0l1.335,1.716c4.269,5.488,11.255,5.488,15.525,0l1.336-1.717c4.27-5.488,11.256-5.488,15.525,0l1.336,1.717c4.27,5.488,11.257,5.488,15.526,0l1.337-1.718c4.27-5.487,11.257-5.487,15.526,0l1.337,1.718c4.27,5.487,11.257,5.487,15.527,0l1.336-1.718c4.27-5.487,11.257-5.487,15.527,0l1.337,1.718c4.27,5.487,11.258,5.488,15.528,0l1.338-1.719c4.27-5.487,11.258-5.487,15.528,0l9.1,11.695" transform="translate(-0.785 -0.611)" fill="none" stroke="#03bf56" stroke-miterlimit="10" stroke-width="4"/>
                </g>
              </g>
            </g>
          </g>
        </g>
        <g transform="translate(666 -1666)">
          <g id="マスクグループ_222" data-name="マスクグループ 222" transform="translate(0.261 6.767)" clip-path="url(#clip-path-4)">
            <g id="マスクグループ_221" data-name="マスクグループ 221" transform="translate(101.843 1656.369)" clip-path="url(#clip-path-5)">
              <g id="グループ_424" data-name="グループ 424" transform="translate(-86.96 6.579)">
                <g id="グループ_423" data-name="グループ 423" transform="translate(0 0)" clip-path="url(#clip-path-6)">
                  <path id="パス_123" data-name="パス 123" d="M1.973,1.535l9.1,11.694c4.269,5.488,11.255,5.487,15.524,0l1.335-1.716c4.269-5.488,11.256-5.488,15.525,0l1.335,1.716c4.269,5.488,11.255,5.488,15.525,0l1.335-1.716c4.27-5.488,11.256-5.488,15.525,0l1.335,1.716c4.269,5.488,11.255,5.488,15.525,0l1.335-1.717c4.27-5.488,11.256-5.487,15.525,0l1.335,1.716c4.269,5.488,11.256,5.488,15.525,0l1.336-1.717c4.269-5.488,11.256-5.487,15.525,0l1.335,1.716c4.269,5.488,11.256,5.488,15.525,0l1.335-1.717c4.27-5.488,11.256-5.487,15.525,0l1.335,1.716c4.269,5.488,11.255,5.488,15.525,0l1.335-1.717c4.27-5.488,11.256-5.487,15.525,0l1.335,1.716c4.269,5.488,11.256,5.488,15.525,0l1.335-1.717c4.27-5.488,11.256-5.487,15.525,0l1.335,1.716c4.27,5.488,11.256,5.488,15.525,0l1.335-1.716c4.269-5.488,11.256-5.488,15.525,0l1.335,1.717c4.27,5.488,11.256,5.487,15.525,0l1.335-1.716c4.269-5.488,11.256-5.488,15.525,0l1.335,1.716c4.27,5.488,11.256,5.488,15.525,0l1.336-1.717c4.269-5.488,11.256-5.487,15.525,0l1.335,1.716c4.269,5.488,11.256,5.488,15.525,0l1.335-1.716c4.269-5.488,11.256-5.488,15.525,0l1.335,1.716c4.27,5.488,11.256,5.488,15.525,0l1.335-1.717c4.27-5.488,11.256-5.488,15.525,0l1.336,1.717c4.269,5.488,11.256,5.488,15.525,0l1.335-1.717c4.27-5.488,11.256-5.487,15.524,0l1.334,1.714c4.269,5.488,11.255,5.489,15.524,0l1.336-1.717c4.269-5.488,11.256-5.487,15.524,0l1.335,1.716c4.269,5.488,11.254,5.488,15.523,0L500,11.513c4.269-5.488,11.255-5.488,15.525,0l1.335,1.716c4.27,5.488,11.255,5.488,15.525,0l1.334-1.716c4.269-5.488,11.255-5.488,15.525,0l1.335,1.716c4.269,5.488,11.256,5.488,15.525,0l1.336-1.717c4.27-5.488,11.256-5.487,15.525,0l1.335,1.716c4.269,5.488,11.256,5.488,15.525,0l1.335-1.716c4.269-5.488,11.255-5.488,15.525,0l1.335,1.716c4.27,5.488,11.256,5.488,15.525,0l1.335-1.716c4.269-5.488,11.255-5.488,15.525,0l1.335,1.717c4.27,5.488,11.256,5.488,15.526,0l1.336-1.717c4.27-5.488,11.256-5.488,15.526,0l1.336,1.717c4.269,5.488,11.256,5.488,15.525,0l1.336-1.717c4.269-5.488,11.256-5.488,15.525,0l1.336,1.717c4.27,5.488,11.256,5.488,15.526,0l1.336-1.717c4.27-5.488,11.256-5.488,15.526,0l1.336,1.717c4.27,5.488,11.257,5.488,15.526,0l1.336-1.717c4.27-5.488,11.256-5.487,15.525,0l1.335,1.716c4.269,5.488,11.255,5.488,15.525,0l1.336-1.717c4.27-5.488,11.256-5.488,15.525,0l1.336,1.717c4.27,5.488,11.257,5.488,15.526,0l1.337-1.718c4.27-5.487,11.257-5.487,15.526,0l1.337,1.718c4.27,5.487,11.257,5.487,15.527,0l1.336-1.718c4.27-5.487,11.257-5.487,15.527,0l1.337,1.718c4.27,5.487,11.258,5.488,15.528,0l1.338-1.719c4.27-5.487,11.258-5.487,15.528,0l9.1,11.695" transform="translate(-0.785 -0.611)" fill="none" stroke="#03bf56" stroke-miterlimit="10" stroke-width="4"/>
                </g>
              </g>
            </g>
          </g>
        </g>
        <g transform="translate(734 -1666)">
          <g id="マスクグループ_224" data-name="マスクグループ 224" transform="translate(0.261 6.767)" clip-path="url(#clip-path-4)">
            <g id="マスクグループ_223" data-name="マスクグループ 223" transform="translate(101.843 1656.369)" clip-path="url(#clip-path-5)">
              <g id="グループ_426" data-name="グループ 426" transform="translate(-86.96 6.579)">
                <g id="グループ_425" data-name="グループ 425" transform="translate(0 0)" clip-path="url(#clip-path-6)">
                  <path id="パス_124" data-name="パス 124" d="M1.973,1.535l9.1,11.694c4.269,5.488,11.255,5.487,15.524,0l1.335-1.716c4.269-5.488,11.256-5.488,15.525,0l1.335,1.716c4.269,5.488,11.255,5.488,15.525,0l1.335-1.716c4.27-5.488,11.256-5.488,15.525,0l1.335,1.716c4.269,5.488,11.255,5.488,15.525,0l1.335-1.717c4.27-5.488,11.256-5.487,15.525,0l1.335,1.716c4.269,5.488,11.256,5.488,15.525,0l1.336-1.717c4.269-5.488,11.256-5.487,15.525,0l1.335,1.716c4.269,5.488,11.256,5.488,15.525,0l1.335-1.717c4.27-5.488,11.256-5.487,15.525,0l1.335,1.716c4.269,5.488,11.255,5.488,15.525,0l1.335-1.717c4.27-5.488,11.256-5.487,15.525,0l1.335,1.716c4.269,5.488,11.256,5.488,15.525,0l1.335-1.717c4.27-5.488,11.256-5.487,15.525,0l1.335,1.716c4.27,5.488,11.256,5.488,15.525,0l1.335-1.716c4.269-5.488,11.256-5.488,15.525,0l1.335,1.717c4.27,5.488,11.256,5.487,15.525,0l1.335-1.716c4.269-5.488,11.256-5.488,15.525,0l1.335,1.716c4.27,5.488,11.256,5.488,15.525,0l1.336-1.717c4.269-5.488,11.256-5.487,15.525,0l1.335,1.716c4.269,5.488,11.256,5.488,15.525,0l1.335-1.716c4.269-5.488,11.256-5.488,15.525,0l1.335,1.716c4.27,5.488,11.256,5.488,15.525,0l1.335-1.717c4.27-5.488,11.256-5.488,15.525,0l1.336,1.717c4.269,5.488,11.256,5.488,15.525,0l1.335-1.717c4.27-5.488,11.256-5.487,15.524,0l1.334,1.714c4.269,5.488,11.255,5.489,15.524,0l1.336-1.717c4.269-5.488,11.256-5.487,15.524,0l1.335,1.716c4.269,5.488,11.254,5.488,15.523,0L500,11.513c4.269-5.488,11.255-5.488,15.525,0l1.335,1.716c4.27,5.488,11.255,5.488,15.525,0l1.334-1.716c4.269-5.488,11.255-5.488,15.525,0l1.335,1.716c4.269,5.488,11.256,5.488,15.525,0l1.336-1.717c4.27-5.488,11.256-5.487,15.525,0l1.335,1.716c4.269,5.488,11.256,5.488,15.525,0l1.335-1.716c4.269-5.488,11.255-5.488,15.525,0l1.335,1.716c4.27,5.488,11.256,5.488,15.525,0l1.335-1.716c4.269-5.488,11.255-5.488,15.525,0l1.335,1.717c4.27,5.488,11.256,5.488,15.526,0l1.336-1.717c4.27-5.488,11.256-5.488,15.526,0l1.336,1.717c4.269,5.488,11.256,5.488,15.525,0l1.336-1.717c4.269-5.488,11.256-5.488,15.525,0l1.336,1.717c4.27,5.488,11.256,5.488,15.526,0l1.336-1.717c4.27-5.488,11.256-5.488,15.526,0l1.336,1.717c4.27,5.488,11.257,5.488,15.526,0l1.336-1.717c4.27-5.488,11.256-5.487,15.525,0l1.335,1.716c4.269,5.488,11.255,5.488,15.525,0l1.336-1.717c4.27-5.488,11.256-5.488,15.525,0l1.336,1.717c4.27,5.488,11.257,5.488,15.526,0l1.337-1.718c4.27-5.487,11.257-5.487,15.526,0l1.337,1.718c4.27,5.487,11.257,5.487,15.527,0l1.336-1.718c4.27-5.487,11.257-5.487,15.527,0l1.337,1.718c4.27,5.487,11.258,5.488,15.528,0l1.338-1.719c4.27-5.487,11.258-5.487,15.528,0l9.1,11.695" transform="translate(-0.785 -0.611)" fill="none" stroke="#03bf56" stroke-miterlimit="10" stroke-width="4"/>
                </g>
              </g>
            </g>
          </g>
        </g>
        <g transform="translate(802 -1666)">
          <g id="マスクグループ_226" data-name="マスクグループ 226" transform="translate(0.261 6.767)" clip-path="url(#clip-path-4)">
            <g id="マスクグループ_225" data-name="マスクグループ 225" transform="translate(101.843 1656.369)" clip-path="url(#clip-path-5)">
              <g id="グループ_428" data-name="グループ 428" transform="translate(-86.96 6.579)">
                <g id="グループ_427" data-name="グループ 427" transform="translate(0 0)" clip-path="url(#clip-path-6)">
                  <path id="パス_125" data-name="パス 125" d="M1.973,1.535l9.1,11.694c4.269,5.488,11.255,5.487,15.524,0l1.335-1.716c4.269-5.488,11.256-5.488,15.525,0l1.335,1.716c4.269,5.488,11.255,5.488,15.525,0l1.335-1.716c4.27-5.488,11.256-5.488,15.525,0l1.335,1.716c4.269,5.488,11.255,5.488,15.525,0l1.335-1.717c4.27-5.488,11.256-5.487,15.525,0l1.335,1.716c4.269,5.488,11.256,5.488,15.525,0l1.336-1.717c4.269-5.488,11.256-5.487,15.525,0l1.335,1.716c4.269,5.488,11.256,5.488,15.525,0l1.335-1.717c4.27-5.488,11.256-5.487,15.525,0l1.335,1.716c4.269,5.488,11.255,5.488,15.525,0l1.335-1.717c4.27-5.488,11.256-5.487,15.525,0l1.335,1.716c4.269,5.488,11.256,5.488,15.525,0l1.335-1.717c4.27-5.488,11.256-5.487,15.525,0l1.335,1.716c4.27,5.488,11.256,5.488,15.525,0l1.335-1.716c4.269-5.488,11.256-5.488,15.525,0l1.335,1.717c4.27,5.488,11.256,5.487,15.525,0l1.335-1.716c4.269-5.488,11.256-5.488,15.525,0l1.335,1.716c4.27,5.488,11.256,5.488,15.525,0l1.336-1.717c4.269-5.488,11.256-5.487,15.525,0l1.335,1.716c4.269,5.488,11.256,5.488,15.525,0l1.335-1.716c4.269-5.488,11.256-5.488,15.525,0l1.335,1.716c4.27,5.488,11.256,5.488,15.525,0l1.335-1.717c4.27-5.488,11.256-5.488,15.525,0l1.336,1.717c4.269,5.488,11.256,5.488,15.525,0l1.335-1.717c4.27-5.488,11.256-5.487,15.524,0l1.334,1.714c4.269,5.488,11.255,5.489,15.524,0l1.336-1.717c4.269-5.488,11.256-5.487,15.524,0l1.335,1.716c4.269,5.488,11.254,5.488,15.523,0L500,11.513c4.269-5.488,11.255-5.488,15.525,0l1.335,1.716c4.27,5.488,11.255,5.488,15.525,0l1.334-1.716c4.269-5.488,11.255-5.488,15.525,0l1.335,1.716c4.269,5.488,11.256,5.488,15.525,0l1.336-1.717c4.27-5.488,11.256-5.487,15.525,0l1.335,1.716c4.269,5.488,11.256,5.488,15.525,0l1.335-1.716c4.269-5.488,11.255-5.488,15.525,0l1.335,1.716c4.27,5.488,11.256,5.488,15.525,0l1.335-1.716c4.269-5.488,11.255-5.488,15.525,0l1.335,1.717c4.27,5.488,11.256,5.488,15.526,0l1.336-1.717c4.27-5.488,11.256-5.488,15.526,0l1.336,1.717c4.269,5.488,11.256,5.488,15.525,0l1.336-1.717c4.269-5.488,11.256-5.488,15.525,0l1.336,1.717c4.27,5.488,11.256,5.488,15.526,0l1.336-1.717c4.27-5.488,11.256-5.488,15.526,0l1.336,1.717c4.27,5.488,11.257,5.488,15.526,0l1.336-1.717c4.27-5.488,11.256-5.487,15.525,0l1.335,1.716c4.269,5.488,11.255,5.488,15.525,0l1.336-1.717c4.27-5.488,11.256-5.488,15.525,0l1.336,1.717c4.27,5.488,11.257,5.488,15.526,0l1.337-1.718c4.27-5.487,11.257-5.487,15.526,0l1.337,1.718c4.27,5.487,11.257,5.487,15.527,0l1.336-1.718c4.27-5.487,11.257-5.487,15.527,0l1.337,1.718c4.27,5.487,11.258,5.488,15.528,0l1.338-1.719c4.27-5.487,11.258-5.487,15.528,0l9.1,11.695" transform="translate(-0.785 -0.611)" fill="none" stroke="#03bf56" stroke-miterlimit="10" stroke-width="4"/>
                </g>
              </g>
            </g>
          </g>
        </g>
        <g transform="translate(870 -1666)">
          <g id="マスクグループ_228" data-name="マスクグループ 228" transform="translate(0.261 6.767)" clip-path="url(#clip-path-4)">
            <g id="マスクグループ_227" data-name="マスクグループ 227" transform="translate(101.843 1656.369)" clip-path="url(#clip-path-5)">
              <g id="グループ_430" data-name="グループ 430" transform="translate(-86.96 6.579)">
                <g id="グループ_429" data-name="グループ 429" transform="translate(0 0)" clip-path="url(#clip-path-6)">
                  <path id="パス_126" data-name="パス 126" d="M1.973,1.535l9.1,11.694c4.269,5.488,11.255,5.487,15.524,0l1.335-1.716c4.269-5.488,11.256-5.488,15.525,0l1.335,1.716c4.269,5.488,11.255,5.488,15.525,0l1.335-1.716c4.27-5.488,11.256-5.488,15.525,0l1.335,1.716c4.269,5.488,11.255,5.488,15.525,0l1.335-1.717c4.27-5.488,11.256-5.487,15.525,0l1.335,1.716c4.269,5.488,11.256,5.488,15.525,0l1.336-1.717c4.269-5.488,11.256-5.487,15.525,0l1.335,1.716c4.269,5.488,11.256,5.488,15.525,0l1.335-1.717c4.27-5.488,11.256-5.487,15.525,0l1.335,1.716c4.269,5.488,11.255,5.488,15.525,0l1.335-1.717c4.27-5.488,11.256-5.487,15.525,0l1.335,1.716c4.269,5.488,11.256,5.488,15.525,0l1.335-1.717c4.27-5.488,11.256-5.487,15.525,0l1.335,1.716c4.27,5.488,11.256,5.488,15.525,0l1.335-1.716c4.269-5.488,11.256-5.488,15.525,0l1.335,1.717c4.27,5.488,11.256,5.487,15.525,0l1.335-1.716c4.269-5.488,11.256-5.488,15.525,0l1.335,1.716c4.27,5.488,11.256,5.488,15.525,0l1.336-1.717c4.269-5.488,11.256-5.487,15.525,0l1.335,1.716c4.269,5.488,11.256,5.488,15.525,0l1.335-1.716c4.269-5.488,11.256-5.488,15.525,0l1.335,1.716c4.27,5.488,11.256,5.488,15.525,0l1.335-1.717c4.27-5.488,11.256-5.488,15.525,0l1.336,1.717c4.269,5.488,11.256,5.488,15.525,0l1.335-1.717c4.27-5.488,11.256-5.487,15.524,0l1.334,1.714c4.269,5.488,11.255,5.489,15.524,0l1.336-1.717c4.269-5.488,11.256-5.487,15.524,0l1.335,1.716c4.269,5.488,11.254,5.488,15.523,0L500,11.513c4.269-5.488,11.255-5.488,15.525,0l1.335,1.716c4.27,5.488,11.255,5.488,15.525,0l1.334-1.716c4.269-5.488,11.255-5.488,15.525,0l1.335,1.716c4.269,5.488,11.256,5.488,15.525,0l1.336-1.717c4.27-5.488,11.256-5.487,15.525,0l1.335,1.716c4.269,5.488,11.256,5.488,15.525,0l1.335-1.716c4.269-5.488,11.255-5.488,15.525,0l1.335,1.716c4.27,5.488,11.256,5.488,15.525,0l1.335-1.716c4.269-5.488,11.255-5.488,15.525,0l1.335,1.717c4.27,5.488,11.256,5.488,15.526,0l1.336-1.717c4.27-5.488,11.256-5.488,15.526,0l1.336,1.717c4.269,5.488,11.256,5.488,15.525,0l1.336-1.717c4.269-5.488,11.256-5.488,15.525,0l1.336,1.717c4.27,5.488,11.256,5.488,15.526,0l1.336-1.717c4.27-5.488,11.256-5.488,15.526,0l1.336,1.717c4.27,5.488,11.257,5.488,15.526,0l1.336-1.717c4.27-5.488,11.256-5.487,15.525,0l1.335,1.716c4.269,5.488,11.255,5.488,15.525,0l1.336-1.717c4.27-5.488,11.256-5.488,15.525,0l1.336,1.717c4.27,5.488,11.257,5.488,15.526,0l1.337-1.718c4.27-5.487,11.257-5.487,15.526,0l1.337,1.718c4.27,5.487,11.257,5.487,15.527,0l1.336-1.718c4.27-5.487,11.257-5.487,15.527,0l1.337,1.718c4.27,5.487,11.258,5.488,15.528,0l1.338-1.719c4.27-5.487,11.258-5.487,15.528,0l9.1,11.695" transform="translate(-0.785 -0.611)" fill="none" stroke="#03bf56" stroke-miterlimit="10" stroke-width="4"/>
                </g>
              </g>
            </g>
          </g>
        </g>
        <g transform="translate(938 -1666)">
          <g id="マスクグループ_230" data-name="マスクグループ 230" transform="translate(0.261 6.767)" clip-path="url(#clip-path-4)">
            <g id="マスクグループ_229" data-name="マスクグループ 229" transform="translate(101.843 1656.369)" clip-path="url(#clip-path-5)">
              <g id="グループ_432" data-name="グループ 432" transform="translate(-86.96 6.579)">
                <g id="グループ_431" data-name="グループ 431" transform="translate(0 0)" clip-path="url(#clip-path-6)">
                  <path id="パス_127" data-name="パス 127" d="M1.973,1.535l9.1,11.694c4.269,5.488,11.255,5.487,15.524,0l1.335-1.716c4.269-5.488,11.256-5.488,15.525,0l1.335,1.716c4.269,5.488,11.255,5.488,15.525,0l1.335-1.716c4.27-5.488,11.256-5.488,15.525,0l1.335,1.716c4.269,5.488,11.255,5.488,15.525,0l1.335-1.717c4.27-5.488,11.256-5.487,15.525,0l1.335,1.716c4.269,5.488,11.256,5.488,15.525,0l1.336-1.717c4.269-5.488,11.256-5.487,15.525,0l1.335,1.716c4.269,5.488,11.256,5.488,15.525,0l1.335-1.717c4.27-5.488,11.256-5.487,15.525,0l1.335,1.716c4.269,5.488,11.255,5.488,15.525,0l1.335-1.717c4.27-5.488,11.256-5.487,15.525,0l1.335,1.716c4.269,5.488,11.256,5.488,15.525,0l1.335-1.717c4.27-5.488,11.256-5.487,15.525,0l1.335,1.716c4.27,5.488,11.256,5.488,15.525,0l1.335-1.716c4.269-5.488,11.256-5.488,15.525,0l1.335,1.717c4.27,5.488,11.256,5.487,15.525,0l1.335-1.716c4.269-5.488,11.256-5.488,15.525,0l1.335,1.716c4.27,5.488,11.256,5.488,15.525,0l1.336-1.717c4.269-5.488,11.256-5.487,15.525,0l1.335,1.716c4.269,5.488,11.256,5.488,15.525,0l1.335-1.716c4.269-5.488,11.256-5.488,15.525,0l1.335,1.716c4.27,5.488,11.256,5.488,15.525,0l1.335-1.717c4.27-5.488,11.256-5.488,15.525,0l1.336,1.717c4.269,5.488,11.256,5.488,15.525,0l1.335-1.717c4.27-5.488,11.256-5.487,15.524,0l1.334,1.714c4.269,5.488,11.255,5.489,15.524,0l1.336-1.717c4.269-5.488,11.256-5.487,15.524,0l1.335,1.716c4.269,5.488,11.254,5.488,15.523,0L500,11.513c4.269-5.488,11.255-5.488,15.525,0l1.335,1.716c4.27,5.488,11.255,5.488,15.525,0l1.334-1.716c4.269-5.488,11.255-5.488,15.525,0l1.335,1.716c4.269,5.488,11.256,5.488,15.525,0l1.336-1.717c4.27-5.488,11.256-5.487,15.525,0l1.335,1.716c4.269,5.488,11.256,5.488,15.525,0l1.335-1.716c4.269-5.488,11.255-5.488,15.525,0l1.335,1.716c4.27,5.488,11.256,5.488,15.525,0l1.335-1.716c4.269-5.488,11.255-5.488,15.525,0l1.335,1.717c4.27,5.488,11.256,5.488,15.526,0l1.336-1.717c4.27-5.488,11.256-5.488,15.526,0l1.336,1.717c4.269,5.488,11.256,5.488,15.525,0l1.336-1.717c4.269-5.488,11.256-5.488,15.525,0l1.336,1.717c4.27,5.488,11.256,5.488,15.526,0l1.336-1.717c4.27-5.488,11.256-5.488,15.526,0l1.336,1.717c4.27,5.488,11.257,5.488,15.526,0l1.336-1.717c4.27-5.488,11.256-5.487,15.525,0l1.335,1.716c4.269,5.488,11.255,5.488,15.525,0l1.336-1.717c4.27-5.488,11.256-5.488,15.525,0l1.336,1.717c4.27,5.488,11.257,5.488,15.526,0l1.337-1.718c4.27-5.487,11.257-5.487,15.526,0l1.337,1.718c4.27,5.487,11.257,5.487,15.527,0l1.336-1.718c4.27-5.487,11.257-5.487,15.527,0l1.337,1.718c4.27,5.487,11.258,5.488,15.528,0l1.338-1.719c4.27-5.487,11.258-5.487,15.528,0l9.1,11.695" transform="translate(-0.785 -0.611)" fill="none" stroke="#03bf56" stroke-miterlimit="10" stroke-width="4"/>
                </g>
              </g>
            </g>
          </g>
        </g>
        <g transform="translate(1006 -1666)">
          <g id="マスクグループ_232" data-name="マスクグループ 232" transform="translate(0.261 6.767)" clip-path="url(#clip-path-4)">
            <g id="マスクグループ_231" data-name="マスクグループ 231" transform="translate(101.843 1656.369)" clip-path="url(#clip-path-5)">
              <g id="グループ_434" data-name="グループ 434" transform="translate(-86.96 6.579)">
                <g id="グループ_433" data-name="グループ 433" transform="translate(0 0)" clip-path="url(#clip-path-6)">
                  <path id="パス_128" data-name="パス 128" d="M1.973,1.535l9.1,11.694c4.269,5.488,11.255,5.487,15.524,0l1.335-1.716c4.269-5.488,11.256-5.488,15.525,0l1.335,1.716c4.269,5.488,11.255,5.488,15.525,0l1.335-1.716c4.27-5.488,11.256-5.488,15.525,0l1.335,1.716c4.269,5.488,11.255,5.488,15.525,0l1.335-1.717c4.27-5.488,11.256-5.487,15.525,0l1.335,1.716c4.269,5.488,11.256,5.488,15.525,0l1.336-1.717c4.269-5.488,11.256-5.487,15.525,0l1.335,1.716c4.269,5.488,11.256,5.488,15.525,0l1.335-1.717c4.27-5.488,11.256-5.487,15.525,0l1.335,1.716c4.269,5.488,11.255,5.488,15.525,0l1.335-1.717c4.27-5.488,11.256-5.487,15.525,0l1.335,1.716c4.269,5.488,11.256,5.488,15.525,0l1.335-1.717c4.27-5.488,11.256-5.487,15.525,0l1.335,1.716c4.27,5.488,11.256,5.488,15.525,0l1.335-1.716c4.269-5.488,11.256-5.488,15.525,0l1.335,1.717c4.27,5.488,11.256,5.487,15.525,0l1.335-1.716c4.269-5.488,11.256-5.488,15.525,0l1.335,1.716c4.27,5.488,11.256,5.488,15.525,0l1.336-1.717c4.269-5.488,11.256-5.487,15.525,0l1.335,1.716c4.269,5.488,11.256,5.488,15.525,0l1.335-1.716c4.269-5.488,11.256-5.488,15.525,0l1.335,1.716c4.27,5.488,11.256,5.488,15.525,0l1.335-1.717c4.27-5.488,11.256-5.488,15.525,0l1.336,1.717c4.269,5.488,11.256,5.488,15.525,0l1.335-1.717c4.27-5.488,11.256-5.487,15.524,0l1.334,1.714c4.269,5.488,11.255,5.489,15.524,0l1.336-1.717c4.269-5.488,11.256-5.487,15.524,0l1.335,1.716c4.269,5.488,11.254,5.488,15.523,0L500,11.513c4.269-5.488,11.255-5.488,15.525,0l1.335,1.716c4.27,5.488,11.255,5.488,15.525,0l1.334-1.716c4.269-5.488,11.255-5.488,15.525,0l1.335,1.716c4.269,5.488,11.256,5.488,15.525,0l1.336-1.717c4.27-5.488,11.256-5.487,15.525,0l1.335,1.716c4.269,5.488,11.256,5.488,15.525,0l1.335-1.716c4.269-5.488,11.255-5.488,15.525,0l1.335,1.716c4.27,5.488,11.256,5.488,15.525,0l1.335-1.716c4.269-5.488,11.255-5.488,15.525,0l1.335,1.717c4.27,5.488,11.256,5.488,15.526,0l1.336-1.717c4.27-5.488,11.256-5.488,15.526,0l1.336,1.717c4.269,5.488,11.256,5.488,15.525,0l1.336-1.717c4.269-5.488,11.256-5.488,15.525,0l1.336,1.717c4.27,5.488,11.256,5.488,15.526,0l1.336-1.717c4.27-5.488,11.256-5.488,15.526,0l1.336,1.717c4.27,5.488,11.257,5.488,15.526,0l1.336-1.717c4.27-5.488,11.256-5.487,15.525,0l1.335,1.716c4.269,5.488,11.255,5.488,15.525,0l1.336-1.717c4.27-5.488,11.256-5.488,15.525,0l1.336,1.717c4.27,5.488,11.257,5.488,15.526,0l1.337-1.718c4.27-5.487,11.257-5.487,15.526,0l1.337,1.718c4.27,5.487,11.257,5.487,15.527,0l1.336-1.718c4.27-5.487,11.257-5.487,15.527,0l1.337,1.718c4.27,5.487,11.258,5.488,15.528,0l1.338-1.719c4.27-5.487,11.258-5.487,15.528,0l9.1,11.695" transform="translate(-0.785 -0.611)" fill="none" stroke="#03bf56" stroke-miterlimit="10" stroke-width="4"/>
                </g>
              </g>
            </g>
          </g>
        </g>
        <g transform="translate(1074 -1666)">
          <g id="マスクグループ_234" data-name="マスクグループ 234" transform="translate(0.261 6.767)" clip-path="url(#clip-path-4)">
            <g id="マスクグループ_233" data-name="マスクグループ 233" transform="translate(101.843 1656.369)" clip-path="url(#clip-path-5)">
              <g id="グループ_436" data-name="グループ 436" transform="translate(-86.96 6.579)">
                <g id="グループ_435" data-name="グループ 435" transform="translate(0 0)" clip-path="url(#clip-path-6)">
                  <path id="パス_129" data-name="パス 129" d="M1.973,1.535l9.1,11.694c4.269,5.488,11.255,5.487,15.524,0l1.335-1.716c4.269-5.488,11.256-5.488,15.525,0l1.335,1.716c4.269,5.488,11.255,5.488,15.525,0l1.335-1.716c4.27-5.488,11.256-5.488,15.525,0l1.335,1.716c4.269,5.488,11.255,5.488,15.525,0l1.335-1.717c4.27-5.488,11.256-5.487,15.525,0l1.335,1.716c4.269,5.488,11.256,5.488,15.525,0l1.336-1.717c4.269-5.488,11.256-5.487,15.525,0l1.335,1.716c4.269,5.488,11.256,5.488,15.525,0l1.335-1.717c4.27-5.488,11.256-5.487,15.525,0l1.335,1.716c4.269,5.488,11.255,5.488,15.525,0l1.335-1.717c4.27-5.488,11.256-5.487,15.525,0l1.335,1.716c4.269,5.488,11.256,5.488,15.525,0l1.335-1.717c4.27-5.488,11.256-5.487,15.525,0l1.335,1.716c4.27,5.488,11.256,5.488,15.525,0l1.335-1.716c4.269-5.488,11.256-5.488,15.525,0l1.335,1.717c4.27,5.488,11.256,5.487,15.525,0l1.335-1.716c4.269-5.488,11.256-5.488,15.525,0l1.335,1.716c4.27,5.488,11.256,5.488,15.525,0l1.336-1.717c4.269-5.488,11.256-5.487,15.525,0l1.335,1.716c4.269,5.488,11.256,5.488,15.525,0l1.335-1.716c4.269-5.488,11.256-5.488,15.525,0l1.335,1.716c4.27,5.488,11.256,5.488,15.525,0l1.335-1.717c4.27-5.488,11.256-5.488,15.525,0l1.336,1.717c4.269,5.488,11.256,5.488,15.525,0l1.335-1.717c4.27-5.488,11.256-5.487,15.524,0l1.334,1.714c4.269,5.488,11.255,5.489,15.524,0l1.336-1.717c4.269-5.488,11.256-5.487,15.524,0l1.335,1.716c4.269,5.488,11.254,5.488,15.523,0L500,11.513c4.269-5.488,11.255-5.488,15.525,0l1.335,1.716c4.27,5.488,11.255,5.488,15.525,0l1.334-1.716c4.269-5.488,11.255-5.488,15.525,0l1.335,1.716c4.269,5.488,11.256,5.488,15.525,0l1.336-1.717c4.27-5.488,11.256-5.487,15.525,0l1.335,1.716c4.269,5.488,11.256,5.488,15.525,0l1.335-1.716c4.269-5.488,11.255-5.488,15.525,0l1.335,1.716c4.27,5.488,11.256,5.488,15.525,0l1.335-1.716c4.269-5.488,11.255-5.488,15.525,0l1.335,1.717c4.27,5.488,11.256,5.488,15.526,0l1.336-1.717c4.27-5.488,11.256-5.488,15.526,0l1.336,1.717c4.269,5.488,11.256,5.488,15.525,0l1.336-1.717c4.269-5.488,11.256-5.488,15.525,0l1.336,1.717c4.27,5.488,11.256,5.488,15.526,0l1.336-1.717c4.27-5.488,11.256-5.488,15.526,0l1.336,1.717c4.27,5.488,11.257,5.488,15.526,0l1.336-1.717c4.27-5.488,11.256-5.487,15.525,0l1.335,1.716c4.269,5.488,11.255,5.488,15.525,0l1.336-1.717c4.27-5.488,11.256-5.488,15.525,0l1.336,1.717c4.27,5.488,11.257,5.488,15.526,0l1.337-1.718c4.27-5.487,11.257-5.487,15.526,0l1.337,1.718c4.27,5.487,11.257,5.487,15.527,0l1.336-1.718c4.27-5.487,11.257-5.487,15.527,0l1.337,1.718c4.27,5.487,11.258,5.488,15.528,0l1.338-1.719c4.27-5.487,11.258-5.487,15.528,0l9.1,11.695" transform="translate(-0.785 -0.611)" fill="none" stroke="#03bf56" stroke-miterlimit="10" stroke-width="4"/>
                </g>
              </g>
            </g>
          </g>
        </g>
      </g>
    </g>
  </g>
</svg>
